<svg width="66" height="85" viewBox="0 0 66 85" fill="none" xmlns="http://www.w3.org/2000/svg">
<g clip-path="url(#clip0_25_43)">
<path d="M48.4485 17.696C35.953 9.7588 34.0639 8.57819 33.9426 8.62664C33.8659 8.6634 30.5571 10.4974 26.5876 12.7021C22.6182 14.9068 15.9747 18.5999 11.8255 20.9099L4.27153 25.103L3.75802 42.5482L3.24432 59.9999L9.88202 64.2205C28.3464 75.9556 31.6466 78.0556 31.8269 78.1454L32.0194 78.2487L36.8544 75.5687C39.5153 74.0994 46.2103 70.3752 51.7379 67.3059L61.7931 61.7168L62.3066 44.2716L62.8201 26.8264L48.4485 17.696Z" fill="#F19202"/>
<path d="M34.0607 25.9393C33.4749 25.3536 32.5251 25.3536 31.9393 25.9393L22.3934 35.4853C21.8076 36.0711 21.8076 37.0208 22.3934 37.6066C22.9792 38.1924 23.9289 38.1924 24.5147 37.6066L33 29.1213L41.4853 37.6066C42.0711 38.1924 43.0208 38.1924 43.6066 37.6066C44.1924 37.0208 44.1924 36.0711 43.6066 35.4853L34.0607 25.9393ZM34.5 61L34.5 27L31.5 27L31.5 61L34.5 61Z" fill="white"/>
</g>
<defs>
<clipPath id="clip0_25_43">
<rect width="83.2012" height="62.3569" fill="white" transform="translate(65.4481 1.83496) rotate(91.6861)"/>
</clipPath>
</defs>
</svg>
