<svg width="50" height="50" viewBox="0 0 142 143" fill="none" xmlns="http://www.w3.org/2000/svg">
<path d="M71.01 142.211C109.937 142.211 141.494 110.559 141.494 71.5144C141.494 32.4695 109.937 0.817322 71.01 0.817322C32.083 0.817322 0.526428 32.4695 0.526428 71.5144C0.526428 110.559 32.083 142.211 71.01 142.211Z" fill="#FCECA5"/>
<path d="M138.757 49.7415C137.611 46.9967 134.541 45.4759 130.141 45.4759H81.6602C82.7326 44.9566 83.7681 44.2519 84.6556 43.4359C86.6155 41.5813 87.577 39.1703 87.577 36.24C87.577 31.0101 85.0254 27.3751 81.993 24.8529C84.5446 20.9211 88.2426 17.8054 93.05 15.5057C93.5677 15.2461 93.7896 14.6526 93.5308 14.1333C93.2719 13.614 92.6802 13.3915 92.1625 13.6511C86.4676 16.3588 82.7696 19.9938 80.3659 23.6288C76.1872 20.8469 71.7126 19.8825 71.3798 19.8084C71.2319 19.7713 71.121 19.7713 70.9731 19.8084C70.8991 19.8084 66.2766 20.8098 62.0239 23.6659C59.6202 20.0309 55.9222 16.3588 50.1903 13.6511C49.6726 13.3915 49.081 13.614 48.8221 14.1333C48.5633 14.6526 48.7851 15.2461 49.3028 15.5057C54.1102 17.8054 57.8452 20.9582 60.3968 24.89C57.3274 27.4122 54.7759 31.0843 54.7759 36.24C54.7759 39.1332 55.7743 41.5813 57.6973 43.4359C58.5848 44.289 59.6202 44.9566 60.6926 45.4759H12.2121C7.81146 45.4759 4.74211 46.9967 3.59574 49.7415C2.15352 53.1539 3.89158 57.8646 8.21822 62.3156C11.2875 65.4684 14.5788 67.8794 18.0919 69.4743C18.2028 79.1553 22.5294 83.4209 26.1904 85.3126C28.816 86.685 31.8484 87.2042 34.8067 87.2042C39.0224 87.2042 43.1272 86.1286 45.8268 84.8674C45.0872 89.0217 44.9762 93.2502 45.9007 97.1819V97.219C45.9377 97.4045 45.9747 97.5899 46.0486 97.7754C48.4153 106.789 56.366 110.906 62.7265 114.244C65.7959 115.839 68.7173 117.36 70.4184 119.103C70.6033 119.289 70.8621 119.4 71.158 119.4C71.4538 119.4 71.7126 119.289 71.8975 119.103C73.5986 117.323 76.483 115.839 79.5893 114.244C85.9868 110.943 93.9005 106.789 96.2672 97.7754C96.3042 97.5899 96.3782 97.4045 96.4152 97.219V97.1819C97.3397 93.2502 97.2287 89.0217 96.4892 84.8674C99.2257 86.1286 103.293 87.2042 107.509 87.2042C110.468 87.2042 113.5 86.685 116.125 85.3126C119.786 83.4209 124.113 79.1553 124.224 69.4743C127.737 67.8423 131.028 65.4684 134.098 62.3156C138.461 57.8646 140.199 53.1539 138.757 49.7415ZM59.0655 41.9151C57.5124 40.4314 56.7728 38.5768 56.7728 36.203C56.7728 31.9374 58.8436 28.8217 61.4322 26.6333C62.2458 28.1911 62.9114 29.8232 63.4292 31.5665C64.9823 36.9819 64.3537 41.4329 64.3167 41.47C64.2427 42.0264 64.6125 42.5456 65.1672 42.6198C65.2042 42.6198 65.2781 42.6198 65.3151 42.6198C65.7959 42.6198 66.2396 42.2489 66.3136 41.7667C66.3505 41.5813 67.0162 36.9077 65.3891 31.0843C64.9083 29.341 64.1688 27.3751 63.0594 25.3721C66.4985 23.0353 70.2704 22.0339 71.158 21.8113C72.0825 22.0339 75.8174 23.0353 79.2565 25.3721C78.1471 27.3751 77.4075 29.341 76.9268 31.0843C75.2997 36.9077 75.9653 41.5813 76.0023 41.7667C76.0763 42.286 76.52 42.6198 77.0007 42.6198C77.0377 42.6198 77.1117 42.6198 77.1487 42.6198C77.7034 42.5456 78.0732 42.0264 77.9992 41.47C77.9992 41.4329 77.3705 36.9819 78.8867 31.5665C79.4044 29.8232 80.0331 28.154 80.8836 26.6333C83.4722 28.8217 85.5431 31.9374 85.5431 36.203C85.5431 38.5398 84.8035 40.4314 83.2503 41.9151C80.1071 44.9196 74.5971 45.4017 72.3043 45.4759H71.1949H70.0855C67.7188 45.4017 62.2088 44.9196 59.0655 41.9151ZM47.8236 96.403C47.2689 93.8436 47.195 91.0989 47.4538 88.3541C56.5139 96.5885 70.4553 97.9238 71.084 97.9609C71.1209 97.9609 71.158 97.9609 71.158 97.9609H71.2319C71.8605 97.9238 85.802 96.5514 94.862 88.3541C95.1209 91.0989 95.0469 93.8436 94.4922 96.403C86.6895 103.191 72.4522 104.86 71.158 105.008C69.8637 104.86 55.6264 103.228 47.8236 96.403ZM71.158 95.9208C69.9006 95.7724 55.8853 94.1404 47.7497 85.8318C48.1565 83.2354 48.8591 80.639 49.6726 78.1538C58.178 87.7606 70.5293 88.7992 71.084 88.8363C71.1209 88.8363 71.121 88.8363 71.158 88.8363C71.1949 88.8363 71.1949 88.8363 71.2319 88.8363C71.7866 88.7992 84.1379 87.7606 92.6432 78.1538C93.4568 80.639 94.1224 83.2354 94.5662 85.8318C86.4306 94.1404 72.4153 95.8095 71.158 95.9208ZM71.158 86.7962C70.0855 86.685 58.1041 85.3867 50.4492 75.9283C51.2628 73.777 52.1133 71.7369 53.0008 69.8452C59.5462 76.8927 70.4553 79.1924 70.936 79.3037C71.01 79.3037 71.084 79.3407 71.1209 79.3407C71.1949 79.3407 71.2689 79.3407 71.3428 79.3037C71.8236 79.1924 82.7326 76.8927 89.2781 69.8452C90.1656 71.6998 91.0161 73.777 91.8297 75.9283C84.2118 85.3496 72.1934 86.685 71.158 86.7962ZM71.158 68.139C72.1194 68.1761 74.1163 67.8423 75.9653 67.1746C78.2581 66.3586 81.5123 64.6153 84.6186 61.1287C85.4321 62.464 86.8374 64.8007 88.3536 67.8423C82.8066 74.3333 72.7481 76.8556 71.1949 77.2265C69.6418 76.8556 59.5832 74.3704 54.0363 67.8423C55.5524 64.8007 56.9577 62.4269 57.7712 61.1287C63.762 67.9906 70.5293 68.1761 71.158 68.139C71.158 68.1761 71.158 68.1761 71.158 68.139ZM71.158 66.1361C70.8991 66.1361 64.6495 66.099 59.0285 59.5708C65.0193 54.8231 69.4199 50.0753 71.1209 48.0724C72.859 50.0753 77.2226 54.8231 83.2134 59.5708C77.6294 66.099 71.4168 66.1361 71.158 66.1361ZM9.62347 60.9061C5.92549 57.0857 4.33534 53.1168 5.40776 50.5575C6.22132 48.6287 8.62499 47.5531 12.1381 47.5531H66.6834C58.9176 51.151 40.9454 58.4209 24.7482 57.4566C24.1935 57.4195 23.7128 57.8646 23.6758 58.421C23.6388 58.9774 24.0826 59.4595 24.6373 59.4966C25.7097 59.5708 26.8191 59.6079 27.8915 59.6079C43.3491 59.6079 59.2504 53.3023 66.9053 49.7415C60.2859 56.5664 45.8637 69.0292 31.2567 69.9194C23.1951 70.4016 15.91 67.3601 9.62347 60.9061ZM27.0779 83.495C22.7143 81.2324 20.3846 76.8185 20.1258 70.3274C23.1211 71.4031 26.2644 71.9966 29.5556 71.9966C30.1843 71.9966 30.8129 71.9595 31.4416 71.9224C38.9855 71.4402 46.2705 68.2132 52.5201 64.2444C48.1195 69.2889 40.7235 76.2621 32.403 77.8571C31.8484 77.9683 31.4786 78.4877 31.5895 79.044C31.7004 79.6004 32.2181 79.9713 32.7728 79.86C40.1318 78.4505 46.6773 73.2948 51.3367 68.5841C49.4877 72.5158 47.5648 77.2636 46.4184 82.2339C42.9053 84.4965 33.5864 86.8333 27.0779 83.495ZM78.6279 112.464C75.7804 113.947 73.0809 115.357 71.158 117.026C69.235 115.357 66.5354 113.947 63.688 112.464C58.0671 109.533 51.7435 106.269 48.933 99.8525C57.7342 105.787 70.4923 107.048 71.084 107.085C71.1209 107.085 71.1579 107.085 71.1949 107.085C71.2319 107.085 71.2689 107.085 71.3058 107.085C71.8975 107.011 84.6556 105.75 93.4568 99.8525C90.5354 106.232 84.2488 109.533 78.6279 112.464ZM115.201 83.495C108.729 86.8333 99.3736 84.4965 95.9344 82.271C94.7881 77.3007 92.8651 72.5159 91.0161 68.6212C95.6386 73.3319 102.184 78.4876 109.58 79.8971C110.135 80.0084 110.652 79.6375 110.763 79.0811C110.874 78.5247 110.504 78.0055 109.95 77.8942C101.629 76.2992 94.2334 69.326 89.8328 64.2815C96.0824 68.2503 103.33 71.4773 110.874 71.9595C114.831 72.2191 118.603 71.6627 122.19 70.3645C121.931 76.8185 119.565 81.2695 115.201 83.495ZM132.655 60.9061C126.406 67.3972 119.084 70.4016 110.985 69.8823C96.3782 68.955 81.956 56.5293 75.3366 49.7044C83.0285 53.2281 98.9298 59.5708 114.387 59.5708C115.46 59.5708 116.569 59.5337 117.642 59.4595C118.196 59.4224 118.64 58.9402 118.603 58.3839C118.566 57.8275 118.085 57.3824 117.531 57.4195C101.297 58.421 83.3613 51.1139 75.5955 47.516H130.141C133.654 47.516 136.058 48.5916 136.871 50.5204C137.944 53.1168 136.353 57.0857 132.655 60.9061Z" fill="#1B1464"/>
<path d="M71.158 88.8363C71.121 88.8363 71.121 88.8363 71.084 88.8363C70.5293 88.7992 58.178 87.7977 49.6726 78.1538C48.8591 80.639 48.1935 83.2354 47.7497 85.8318C55.8853 94.1775 69.9006 95.8095 71.158 95.9208C72.4153 95.7724 86.4306 94.1404 94.5662 85.8318C94.1594 83.2354 93.4568 80.639 92.6432 78.1538C84.1749 87.7606 71.7866 88.7992 71.2319 88.8363C71.1949 88.8363 71.158 88.8363 71.158 88.8363Z" fill="white"/>
<path d="M75.9653 67.1746C74.1163 67.8423 72.1194 68.2132 71.1579 68.139C71.1579 68.139 71.1579 68.139 71.1209 68.139C70.5292 68.139 63.7619 67.9907 57.6972 61.0916C56.8837 62.4269 55.4785 64.7636 53.9623 67.8052C59.5462 74.3334 69.5677 76.8185 71.1209 77.1895C72.674 76.8185 82.7326 74.3334 88.2795 67.8052C86.7634 64.7636 85.3582 62.3898 84.5446 61.0916C81.5122 64.6153 78.258 66.3586 75.9653 67.1746Z" fill="white"/>
<path d="M70.0115 45.476H71.1209H72.2303C74.5601 45.4018 80.0701 44.9196 83.1764 41.9151C84.7295 40.4315 85.4691 38.5769 85.4691 36.203C85.4691 31.9374 83.3983 28.8217 80.8097 26.6333C79.9961 28.1911 79.3305 29.8232 78.8128 31.5665C77.2596 36.9819 77.8882 41.4329 77.9252 41.47C77.9992 42.0264 77.6294 42.5457 77.0747 42.6199C77.0377 42.6199 76.9638 42.6199 76.9268 42.6199C76.4461 42.6199 76.0023 42.249 75.9283 41.7668C75.8913 41.5813 75.2257 36.9077 76.8528 31.0843C77.3335 29.341 78.0732 27.3751 79.1826 25.3721C75.7434 23.0353 71.9715 22.0339 71.084 21.8113C70.1964 22.0339 66.4245 23.0353 62.9854 25.3721C64.0948 27.3751 64.8344 29.341 65.3151 31.0843C66.9422 36.9077 66.2766 41.5813 66.2396 41.7668C66.1657 42.2861 65.7219 42.6199 65.2412 42.6199C65.2042 42.6199 65.1302 42.6199 65.0932 42.6199C64.5385 42.5457 64.1687 42.0264 64.2427 41.47C64.2427 41.4329 64.8713 36.9819 63.3552 31.5665C62.8375 29.8232 62.2088 28.154 61.3583 26.6333C58.7697 28.8217 56.6988 31.9374 56.6988 36.203C56.6988 38.5398 57.4384 40.4315 58.9916 41.9151C62.2088 44.9196 67.7188 45.4018 70.0115 45.476Z" fill="#F19202"/>
<path d="M71.3428 79.3037C71.2689 79.3037 71.1949 79.3408 71.1209 79.3408C71.047 79.3408 70.973 79.3408 70.936 79.3037C70.4553 79.1924 59.5462 76.9298 53.0008 69.8453C52.1133 71.6999 51.2628 73.777 50.4492 75.9283C58.1041 85.3496 70.0855 86.685 71.1579 86.7962C72.2304 86.685 84.2118 85.3496 91.8666 75.9283C91.0531 73.777 90.2025 71.737 89.315 69.8453C82.7696 76.8927 71.8236 79.1924 71.3428 79.3037Z" fill="#F19202"/>
<path d="M71.1579 48.0724C69.4199 50.0753 65.0562 54.8231 59.0655 59.5709C64.6864 66.0619 70.8991 66.099 71.1579 66.1361C71.1579 66.1361 71.1579 66.1361 71.1949 66.1361C71.4538 66.1361 77.6664 66.099 83.2873 59.5709C77.2596 54.8231 72.896 50.0753 71.1579 48.0724Z" fill="#F19202"/>
<path d="M136.871 50.5204C136.058 48.5916 133.654 47.516 130.141 47.516H75.5956C83.3613 51.1139 101.333 58.3839 117.531 57.4195C118.085 57.3824 118.566 57.8275 118.603 58.3839C118.64 58.9402 118.196 59.4224 117.642 59.4595C116.569 59.5337 115.46 59.5708 114.387 59.5708C98.9298 59.5708 83.0285 53.2652 75.3367 49.7044C81.9561 56.5293 96.3782 68.9921 110.985 69.8823C119.084 70.4016 126.369 67.3601 132.655 60.9061C136.353 57.0857 137.943 53.1168 136.871 50.5204Z" fill="white"/>
<path d="M110.874 71.9224C103.33 71.4402 96.0454 68.2132 89.8328 64.2444C94.2334 69.2889 101.629 76.2621 109.95 77.8571C110.504 77.9684 110.874 78.4877 110.763 79.0441C110.652 79.6004 110.135 79.9713 109.58 79.8601C102.221 78.4506 95.6756 73.2948 91.0161 68.5841C92.9021 72.5159 94.7881 77.2636 95.9344 82.234C99.3736 84.4595 108.729 86.7963 115.201 83.458C119.565 81.2325 121.894 76.7815 122.153 70.3275C118.603 71.6628 114.831 72.182 110.874 71.9224Z" fill="white"/>
<path d="M71.2319 97.998C71.1949 97.998 71.158 97.998 71.158 97.998H71.084C70.4553 97.9609 56.5139 96.6256 47.4538 88.3912C47.195 91.136 47.2689 93.8808 47.8236 96.4401C55.6264 103.265 69.8637 104.897 71.158 105.045C72.4523 104.897 86.6895 103.228 94.4922 96.4401C95.0469 93.8808 95.1209 91.136 94.862 88.3912C85.802 96.5885 71.8606 97.9238 71.2319 97.998Z" fill="#F19202"/>
<path d="M71.1579 107.085C71.121 107.085 71.084 107.085 71.047 107.085C70.4553 107.048 57.6973 105.787 48.8961 99.8526C51.7435 106.269 58.0301 109.534 63.651 112.464C66.4985 113.947 69.198 115.357 71.1209 117.026C73.0439 115.357 75.7434 113.947 78.5909 112.464C84.2118 109.534 90.5354 106.269 93.3458 99.8526C84.5816 105.75 71.7866 107.048 71.1949 107.085C71.1949 107.048 71.1949 107.085 71.1579 107.085Z" fill="white"/>
<path d="M32.7359 79.8971C32.1812 80.0084 31.6635 79.6375 31.5525 79.0811C31.4416 78.5247 31.8114 78.0055 32.3661 77.8942C40.6866 76.2993 48.0826 69.326 52.4832 64.2815C46.2336 68.2503 38.9855 71.4773 31.4046 71.9595C30.776 71.9966 30.1473 72.0337 29.5186 72.0337C26.2274 72.0337 23.0841 71.4773 20.0888 70.3646C20.3476 76.8556 22.6774 81.2695 27.041 83.5321C33.5125 86.8704 42.8684 84.5336 46.3075 82.3081C47.4539 77.3378 49.3768 72.553 51.2258 68.6583C46.6403 73.3319 40.1319 78.4505 32.7359 79.8971Z" fill="white"/>
<path d="M31.2936 69.8823C45.9007 68.955 60.3228 56.5293 66.9422 49.7044C59.2504 53.2281 43.3491 59.5708 27.9285 59.5708C26.8561 59.5708 25.7467 59.5337 24.6742 59.4595C24.1195 59.4225 23.6758 58.9403 23.7128 58.3839C23.7498 57.8275 24.2305 57.3824 24.7852 57.4195C41.0193 58.421 58.9546 51.1139 66.7203 47.516H12.1751C8.66201 47.516 6.25829 48.5916 5.44473 50.5204C4.37232 53.1169 5.96246 57.0857 9.66044 60.8691C15.91 67.3601 23.1951 70.4016 31.2936 69.8823Z" fill="white"/>
</svg>
