<svg width="70" height="70" viewBox="0 0 129 125" fill="none" xmlns="http://www.w3.org/2000/svg">
<path d="M122.058 2.51755H6.82887C4.68404 2.51755 2.94598 4.18671 2.94598 6.26385V10.0101H11.6362H117.251H125.941V6.26385C125.978 4.18671 124.203 2.51755 122.058 2.51755Z" fill="#F19202"/>
<path d="M18.2186 122.473H26.2063L30.1262 112.606H18.2186V122.473Z" fill="white"/>
<path d="M18.2186 110.269H31.8642H97.0227H110.668V100.959H18.2186V110.269Z" fill="#F19202"/>
<path d="M102.681 122.473H110.668V112.606H98.7607L102.681 122.473Z" fill="white"/>
<path d="M12.7826 31.3379H17.0722H111.815H116.104V12.384H12.7826V31.3379Z" fill="white"/>
<path d="M110.668 33.6747H18.2186V84.8985H110.668V33.6747Z" fill="#F19202"/>
<path d="M17.0722 87.2353H12.7826V98.6225H17.0722H111.815H116.104V87.2353H111.815H17.0722Z" fill="white"/>
<path d="M122.058 0.180786H6.8289C3.38978 0.180786 0.616272 2.92559 0.616272 6.26386V11.197C0.616272 11.8276 1.13402 12.384 1.79965 12.384H10.4899V32.5249C10.4899 33.1554 11.0076 33.7118 11.6733 33.7118H15.9259V84.9356H11.6733C11.0446 84.9356 10.4899 85.4549 10.4899 86.1226V99.8465C10.4899 100.477 11.0076 101.034 11.6733 101.034H15.9259V111.493V123.697C15.9259 124.327 16.4436 124.884 17.1093 124.884H27.0199C27.5006 124.884 27.9074 124.587 28.0923 124.142L32.6778 112.68H96.2832L100.869 124.142C101.054 124.587 101.46 124.884 101.941 124.884H111.852C112.48 124.884 113.035 124.364 113.035 123.697V111.493V101.034H117.288C117.916 101.034 118.471 100.514 118.471 99.8465V86.1226C118.471 85.492 117.953 84.9356 117.288 84.9356H113.035V33.7118H117.288C117.916 33.7118 118.471 33.1925 118.471 32.5249V12.384H127.161C127.79 12.384 128.345 11.8647 128.345 11.197V6.26386C128.308 2.92559 125.497 0.180786 122.058 0.180786ZM26.2064 122.473H18.2187V112.606H30.1262L26.2064 122.473ZM110.668 122.473H102.681L98.7608 112.606H110.668V122.473ZM110.668 110.269H97.0228H31.8643H18.2187V100.959H110.668V110.269ZM116.104 98.6225H111.852H17.0723H12.8196V87.2353H17.0723H111.852H116.104V98.6225ZM110.668 84.8986H18.2187V33.6747H110.668V84.8986ZM116.104 31.3379H111.852H17.0723H12.8196V12.3469H116.104V31.3379ZM125.978 10.0472H117.251H11.6363H2.94602V6.30094C2.94602 4.2238 4.68407 2.55467 6.8289 2.55467H122.058C124.203 2.55467 125.941 4.2238 125.941 6.30094V10.0472H125.978Z" fill="#1B1464"/>
<path d="M49.1708 50.8853H81.3803C82.009 50.8853 82.5637 50.366 82.5637 49.6984V41.9462C82.5637 41.3156 82.046 40.7593 81.3803 40.7593H49.1708C48.5421 40.7593 47.9874 41.2785 47.9874 41.9462V49.6984C47.9874 50.366 48.5051 50.8853 49.1708 50.8853ZM50.3172 43.1331H80.197V48.5485H50.3172V43.1331Z" fill="#1B1464"/>
<path d="M44.7702 66.4268H47.9874V70.6924C47.9874 71.3229 48.5051 71.8793 49.1708 71.8793H81.3803C82.009 71.8793 82.5636 71.36 82.5636 70.6924V66.4268H85.7809C86.4095 66.4268 86.9643 65.9075 86.9643 65.2399V55.7815C86.9643 55.1509 86.4465 54.5945 85.7809 54.5945H44.7702C44.1415 54.5945 43.5869 55.1138 43.5869 55.7815V65.2399C43.6238 65.9075 44.1415 66.4268 44.7702 66.4268ZM80.197 69.5054H50.3172V66.3897H80.197V69.5054ZM45.9535 56.9684H84.5975V64.09H81.3803H49.1708H45.9535V56.9684Z" fill="#1B1464"/>
<path d="M50.3172 43.1331H80.197V48.5486H50.3172V43.1331Z" fill="white"/>
<path d="M80.1968 69.5055H50.3171V66.3897H80.1968V69.5055ZM45.9535 56.9684H84.5974V64.09H81.3802H49.1707H45.9535V56.9684Z" fill="white"/>
<path d="M49.1708 50.8853H81.3803C82.009 50.8853 82.5637 50.366 82.5637 49.6984V41.9462C82.5637 41.3156 82.046 40.7593 81.3803 40.7593H49.1708C48.5421 40.7593 47.9874 41.2785 47.9874 41.9462V49.6984C47.9874 50.366 48.5051 50.8853 49.1708 50.8853ZM50.3172 43.1331H80.197V48.5485H50.3172V43.1331Z" fill="#1B1464"/>
<path d="M44.7702 66.4268H47.9874V70.6924C47.9874 71.3229 48.5051 71.8793 49.1708 71.8793H81.3803C82.009 71.8793 82.5636 71.36 82.5636 70.6924V66.4268H85.7809C86.4095 66.4268 86.9643 65.9075 86.9643 65.2399V55.7815C86.9643 55.1509 86.4465 54.5945 85.7809 54.5945H44.7702C44.1415 54.5945 43.5869 55.1138 43.5869 55.7815V65.2399C43.6238 65.9075 44.1415 66.4268 44.7702 66.4268ZM80.197 69.5054H50.3172V66.3897H80.197V69.5054ZM45.9535 56.9684H84.5975V64.09H81.3803H49.1708H45.9535V56.9684Z" fill="#1B1464"/>
</svg>
