<svg width="50" height="50" viewBox="0 0 142 147" fill="none" xmlns="http://www.w3.org/2000/svg">
<path d="M70.8519 141.579C109.779 141.579 141.335 109.927 141.335 70.8818C141.335 31.8369 109.779 0.184753 70.8519 0.184753C31.9248 0.184753 0.368225 31.8369 0.368225 70.8818C0.368225 109.927 31.9248 141.579 70.8519 141.579Z" fill="#FCECA5"/>
<path d="M52.5098 96.9944C52.066 96.9944 51.6592 97.217 51.4743 97.625C50.8827 98.6636 37.2741 123.144 37.2741 131.119C37.2741 139.576 44.1154 146.438 52.5468 146.438C60.9782 146.438 67.8194 139.576 67.8194 131.119C67.8194 123.107 54.1739 98.6636 53.6192 97.625C53.3603 97.217 52.9535 96.9944 52.5098 96.9944ZM52.5098 144.027C45.4097 144.027 39.6408 138.241 39.6408 131.119C39.6408 124.962 49.2556 106.675 52.5098 100.704C56.8734 108.753 65.3788 125.481 65.3788 131.119C65.3788 138.241 59.6099 144.027 52.5098 144.027Z" fill="#1B1464"/>
<path d="M79.579 59.0866L66.4142 81.9352L79.579 104.784H105.872L119 81.9352L105.872 59.0866H79.579Z" fill="#F19202"/>
<path d="M105.872 56.6756L119 33.8271L105.872 11.0156H79.579L66.4142 33.8271L79.579 56.6756H105.872Z" fill="white"/>
<path d="M64.3434 35.0511H38.0507L24.8859 57.8997L38.0507 80.7482H64.3434L77.4713 57.8997L64.3434 35.0511Z" fill="#F19202"/>
<path d="M52.5098 143.359C45.4097 143.359 39.6408 137.573 39.6408 130.451C39.6408 124.294 49.2556 106.008 52.5098 100.036C56.8734 108.085 65.3788 124.813 65.3788 130.451C65.3788 137.573 59.6099 143.359 52.5098 143.359Z" fill="#F19202"/>
<path d="M62.5314 75.2957H41.8226L31.4682 57.3062C31.1354 56.7127 30.3958 56.5272 29.8411 56.8611C29.2494 57.1949 29.0645 57.9367 29.3973 58.4931L40.1215 77.0761C40.3434 77.447 40.7502 77.6696 41.157 77.6696H62.5683C63.2339 77.6696 63.7886 77.1132 63.7886 76.4456C63.7886 75.7779 63.197 75.2957 62.5314 75.2957Z" fill="#1B1464"/>
<path d="M70.9258 34.4576L81.6129 53.0406C81.8348 53.4115 82.2416 53.6341 82.6484 53.6341H104.06C104.725 53.6341 105.28 53.0777 105.28 52.41C105.28 51.7424 104.725 51.186 104.06 51.186H83.351L72.9966 33.1965C72.6638 32.603 71.9242 32.4175 71.3695 32.7514C70.7778 33.1223 70.593 33.8641 70.9258 34.4576Z" fill="#1B1464"/>
<path d="M107.943 57.8996L121.44 34.4576C121.662 34.0867 121.662 33.6416 121.44 33.2336L107.61 9.19806C107.388 8.82714 106.981 8.60458 106.574 8.60458H78.8764C78.4327 8.60458 78.0629 8.82714 77.841 9.19806L64.3433 32.6401H37.3481C36.9043 32.6401 36.5345 32.8627 36.3126 33.2336L22.4822 57.2691C22.2603 57.64 22.2603 58.0851 22.4822 58.4931L36.3126 82.5286C36.5345 82.8995 36.9413 83.1221 37.3481 83.1221H64.3433L77.841 106.564C78.0629 106.935 78.4697 107.158 78.8764 107.158H106.574C107.018 107.158 107.388 106.935 107.61 106.564L121.44 82.5286C121.662 82.1577 121.662 81.7126 121.44 81.3046L107.943 57.8996ZM79.579 11.0156H105.872L119.036 33.8641L105.872 56.7127H79.579L66.4143 33.8641L79.579 11.0156ZM24.8859 57.8996L38.0507 35.0511H64.3433L77.5082 57.8996L64.3433 80.7482H38.0507L24.8859 57.8996ZM105.872 104.784H79.579L66.4143 81.9351L79.579 59.0866H105.872L119.036 81.9351L105.872 104.784Z" fill="#1B1464"/>
<path d="M104.06 99.3312H83.351L72.9966 81.3417C72.6638 80.7482 71.9242 80.5628 71.3695 80.8966C70.7778 81.2304 70.593 81.9722 70.9258 82.5286L81.6129 101.112C81.8348 101.483 82.2416 101.705 82.6484 101.705H104.06C104.725 101.705 105.28 101.149 105.28 100.481C105.28 99.8876 104.725 99.3312 104.06 99.3312Z" fill="#1B1464"/>
</svg>
