<svg width="70" height="70" viewBox="0 0 146 142" fill="none" xmlns="http://www.w3.org/2000/svg">
<path d="M72.7244 141.888C111.651 141.888 143.208 110.236 143.208 71.1909C143.208 32.146 111.651 0.4939 72.7244 0.4939C33.7974 0.4939 2.24084 32.146 2.24084 71.1909C2.24084 110.236 33.7974 141.888 72.7244 141.888Z" fill="#FCECA5"/>
<path d="M112.995 109.21H32.4534C29.458 109.21 27.0173 111.658 27.0173 114.663V116.072C27.0173 119.077 29.458 121.525 32.4534 121.525H50.5735H94.8753H112.995C115.991 121.525 118.431 119.077 118.431 116.072V114.663C118.431 111.658 115.991 109.21 112.995 109.21Z" fill="white"/>
<path d="M94.8753 123.639H50.5735C47.5781 123.639 45.1375 126.087 45.1375 129.091V130.501C45.1375 133.505 47.5781 135.953 50.5735 135.953H94.8753C97.8707 135.953 100.311 133.505 100.311 130.501V129.091C100.311 126.087 97.8707 123.639 94.8753 123.639Z" fill="#F19202"/>
<path d="M50.5735 18.7059H94.8753C97.8707 18.7059 100.311 16.2579 100.311 13.2535V11.844C100.311 8.83955 97.8707 6.39151 94.8753 6.39151H50.5735C47.5781 6.39151 45.1375 8.83955 45.1375 11.844V13.2535C45.1375 16.2579 47.5781 18.7059 50.5735 18.7059Z" fill="#F19202"/>
<path d="M32.4534 33.1718H112.995C115.991 33.1718 118.431 30.7237 118.431 27.7193V26.3098C118.431 23.3053 115.991 20.8573 112.995 20.8573H94.8753H50.5735H32.4534C29.458 20.8573 27.0173 23.3053 27.0173 26.3098V27.7193C27.0173 30.7237 29.458 33.1718 32.4534 33.1718Z" fill="white"/>
<path d="M131.633 58.283H121.353H24.0959H13.8156C7.492 58.283 2.31482 63.4387 2.31482 69.8185V72.5262C2.31482 78.8689 7.45502 84.0618 13.8156 84.0618H24.0959H51.2392C51.3131 82.8007 51.461 81.5766 51.7199 80.3897H18.6599C18.0682 80.3897 17.6245 79.9075 17.6245 79.3511C17.6245 78.7576 18.1052 78.3126 18.6599 78.3126H52.2746C55.122 69.7444 63.1836 63.55 72.6875 63.55C82.1913 63.55 90.2529 69.7444 93.1003 78.3126H126.715C127.307 78.3126 127.75 78.7947 127.75 79.3511C127.75 79.9446 127.27 80.3897 126.715 80.3897H93.655C93.9139 81.5766 94.0988 82.8007 94.1358 84.0618H121.279H131.559C137.883 84.0618 143.06 78.906 143.06 72.5262V69.8185C143.134 63.4758 137.957 58.283 131.633 58.283Z" fill="white"/>
<path d="M121.353 86.176H94.2097C94.1357 87.3258 93.9878 88.4757 93.7659 89.5884H117.322C117.914 89.5884 118.358 90.0706 118.358 90.627C118.358 91.2205 117.877 91.6656 117.322 91.6656H93.2112C90.4377 100.345 82.3022 106.688 72.7244 106.688C63.1466 106.688 55.0111 100.382 52.2376 91.6656H28.1267C27.5351 91.6656 27.0913 91.1834 27.0913 90.627C27.0913 90.0336 27.572 89.5884 28.1267 89.5884H51.6829C51.461 88.4757 51.3131 87.3629 51.2391 86.176H24.0959C18.9557 86.176 14.777 90.3674 14.777 95.5231V97.7486C14.777 102.904 18.9557 107.096 24.0959 107.096H32.4534H112.995H121.353C126.493 107.096 130.672 102.904 130.672 97.7486V95.5231C130.635 90.3674 126.493 86.176 121.353 86.176Z" fill="#F19202"/>
<path d="M54.4564 91.7027C57.1559 99.2324 64.33 104.611 72.7244 104.611C81.1188 104.611 88.2929 99.2324 90.9925 91.7027C91.2513 91.0351 91.4362 90.3303 91.6211 89.5885C91.88 88.4757 92.0649 87.363 92.1019 86.176C92.1019 85.8422 92.1388 85.4713 92.1388 85.1374C92.1388 84.7665 92.1388 84.4327 92.1019 84.0989C92.0279 82.8378 91.843 81.6137 91.5472 80.4268C91.3623 79.722 91.1404 79.0173 90.8815 78.3126C88.108 70.9313 81.0079 65.6642 72.6874 65.6642C64.367 65.6642 57.2668 70.9313 54.4933 78.3126C54.2345 78.9802 54.0126 79.685 53.8277 80.4268C53.5319 81.6137 53.347 82.8378 53.273 84.0989C53.273 84.4327 53.236 84.8036 53.236 85.1374C53.236 85.5084 53.236 85.8422 53.273 86.176C53.347 87.3259 53.4949 88.4757 53.7537 89.5885C53.9756 90.2932 54.1975 90.998 54.4564 91.7027ZM58.0064 84.0618C58.0804 82.8007 58.3393 81.5766 58.746 80.3897C59.0049 79.6479 59.3007 78.9431 59.6335 78.2754C62.1112 73.5277 67.0295 70.3007 72.7244 70.3007C78.4193 70.3007 83.3376 73.5648 85.8153 78.2754C86.1481 78.9431 86.4809 79.6479 86.7028 80.3897C87.1096 81.5396 87.3314 82.7636 87.4424 84.0618C87.4794 84.3956 87.4794 84.7665 87.4794 85.1004C87.4794 85.4713 87.4794 85.8051 87.4424 86.1389C87.3684 87.3259 87.1465 88.4386 86.8137 89.5514C86.5918 90.2932 86.296 90.998 85.9632 91.6656C83.5595 96.5247 78.5302 99.9 72.7244 99.9C66.9186 99.9 61.9263 96.5247 59.4856 91.6656C59.1528 90.998 58.857 90.2932 58.6351 89.5514C58.3023 88.4757 58.0804 87.3259 58.0064 86.1389C57.9695 85.8051 57.9694 85.4342 57.9694 85.1004C57.9694 84.7665 57.9695 84.4327 58.0064 84.0618Z" fill="white"/>
<path d="M60.8539 89.5885C61.1127 90.3303 61.4825 91.0351 61.8893 91.7027C64.1081 95.3748 68.1389 97.8229 72.7244 97.8229C77.3099 97.8229 81.3407 95.3748 83.5595 91.7027C83.9663 91.0351 84.2991 90.3303 84.5949 89.5885C85.0017 88.5128 85.2606 87.363 85.3715 86.176C85.4085 85.8422 85.4085 85.4713 85.4085 85.1374C85.4085 84.7665 85.3715 84.4327 85.3715 84.0989C85.2606 82.8007 84.9647 81.5766 84.521 80.4268C84.2251 79.685 83.8553 78.9802 83.4486 78.3126C81.1928 74.7889 77.2729 72.4521 72.7984 72.4521C68.3238 72.4521 64.367 74.7889 62.1482 78.3126C61.7414 78.9802 61.3716 79.685 61.0758 80.4268C60.632 81.5766 60.3362 82.8007 60.2252 84.0989C60.1882 84.4327 60.1882 84.8036 60.1882 85.1374C60.1882 85.5084 60.1882 85.8422 60.2252 86.176C60.1882 87.363 60.4471 88.5128 60.8539 89.5885Z" fill="#F19202"/>
<path d="M91.9539 14.1066H53.4949C52.9032 14.1066 52.4595 14.5888 52.4595 15.1452C52.4595 15.7016 52.9402 16.1838 53.4949 16.1838H91.9539C92.5456 16.1838 92.9893 15.7016 92.9893 15.1452C92.9893 14.5888 92.5086 14.1066 91.9539 14.1066Z" fill="#1B1464"/>
<path d="M110.444 28.5353H34.968C34.3763 28.5353 33.9326 29.0175 33.9326 29.5739C33.9326 30.1674 34.4133 30.6124 34.968 30.6124H110.444C111.036 30.6124 111.479 30.1303 111.479 29.5739C111.516 29.0175 111.036 28.5353 110.444 28.5353Z" fill="#1B1464"/>
<path d="M117.322 50.6792H28.1267C27.5351 50.6792 27.0913 51.1613 27.0913 51.7177C27.0913 52.2741 27.572 52.7563 28.1267 52.7563H117.322C117.914 52.7563 118.358 52.2741 118.358 51.7177C118.358 51.1613 117.914 50.6792 117.322 50.6792Z" fill="#1B1464"/>
<path d="M53.4949 128.238H91.9539C92.5456 128.238 92.9893 127.756 92.9893 127.2C92.9893 126.606 92.5086 126.161 91.9539 126.161H53.4949C52.9032 126.161 52.4595 126.643 52.4595 127.2C52.4225 127.756 52.9032 128.238 53.4949 128.238Z" fill="#1B1464"/>
<path d="M34.968 113.809H110.444C111.035 113.809 111.479 113.327 111.479 112.771C111.479 112.177 110.999 111.732 110.444 111.732H34.968C34.3763 111.732 33.9326 112.214 33.9326 112.771C33.9326 113.327 34.3763 113.809 34.968 113.809Z" fill="#1B1464"/>
<path d="M131.633 56.1688H127.935C130.857 54.0916 132.743 50.6792 132.743 46.8216V44.5961C132.743 38.2905 127.639 33.1347 121.316 33.1347H118.21C119.652 31.7623 120.539 29.8336 120.539 27.6822V26.2727C120.539 22.0814 117.137 18.706 112.995 18.706H100.089C101.532 17.3336 102.419 15.4048 102.419 13.2535V11.844C102.419 7.65262 99.0171 4.27726 94.8753 4.27726H50.5735C46.3948 4.27726 43.0296 7.68971 43.0296 11.844V13.2535C43.0296 15.4048 43.9171 17.3336 45.3593 18.706H32.4534C28.2746 18.706 24.9095 22.1185 24.9095 26.2727V27.6822C24.9095 29.8336 25.797 31.7623 27.2392 33.1347H24.0959C17.8094 33.1347 12.6692 38.2534 12.6692 44.5961V46.8216C12.6692 50.6792 14.5921 54.0916 17.4765 56.1688H13.7786C6.27165 56.1688 0.169983 62.2889 0.169983 69.8186V72.5262C0.169983 80.0559 6.27165 86.1761 13.7786 86.1761H17.4765C14.5551 88.2532 12.6692 91.6656 12.6692 95.5232V97.7487C12.6692 104.054 17.7724 109.21 24.0959 109.21H27.2392C25.797 110.582 24.9095 112.511 24.9095 114.663V116.072C24.9095 120.263 28.3116 123.639 32.4534 123.639H45.3593C43.9171 125.011 43.0296 126.94 43.0296 129.091V130.501C43.0296 134.692 46.4317 138.068 50.5735 138.068H94.8753C99.054 138.068 102.419 134.655 102.419 130.501V129.091C102.419 126.94 101.532 125.011 100.089 123.639H112.995C117.174 123.639 120.539 120.226 120.539 116.072V114.663C120.539 112.511 119.652 110.582 118.21 109.21H121.353C127.639 109.21 132.78 104.091 132.78 97.7487V95.5232C132.78 91.6656 130.857 88.2532 127.972 86.1761H131.67C139.177 86.1761 145.279 80.0559 145.279 72.5262V69.8186C145.205 62.2889 139.14 56.1688 131.633 56.1688ZM45.1375 13.2535V11.844C45.1375 8.83956 47.5781 6.39152 50.5735 6.39152H94.8753C97.8707 6.39152 100.311 8.83956 100.311 11.844V13.2535C100.311 16.2579 97.8707 18.706 94.8753 18.706H50.5735C47.5781 18.706 45.1375 16.2579 45.1375 13.2535ZM27.0173 27.6822V26.2727C27.0173 23.2683 29.458 20.8203 32.4534 20.8203H50.5735H94.8753H112.995C115.991 20.8203 118.431 23.2683 118.431 26.2727V27.6822C118.431 30.6867 115.991 33.1347 112.995 33.1347H32.4534C29.458 33.1718 27.0173 30.7238 27.0173 27.6822ZM14.777 46.8587V44.6332C14.777 39.4774 18.9557 35.2861 24.0959 35.2861H32.4534H112.995H121.353C126.493 35.2861 130.672 39.4774 130.672 44.6332V46.8587C130.672 52.0145 126.493 56.2058 121.353 56.2058H24.0959C18.9557 56.1687 14.777 51.9774 14.777 46.8587ZM100.311 129.091V130.501C100.311 133.505 97.8707 135.953 94.8753 135.953H50.5735C47.5781 135.953 45.1375 133.505 45.1375 130.501V129.091C45.1375 126.087 47.5781 123.639 50.5735 123.639H94.8753C97.8707 123.639 100.311 126.087 100.311 129.091ZM118.431 114.663V116.072C118.431 119.077 115.991 121.525 112.995 121.525H94.8753H50.5735H32.4534C29.458 121.525 27.0173 119.077 27.0173 116.072V114.663C27.0173 111.658 29.458 109.21 32.4534 109.21H112.995C115.991 109.21 118.431 111.658 118.431 114.663ZM130.635 95.5232V97.7487C130.635 102.904 126.456 107.096 121.316 107.096H112.958H32.4534H24.0959C18.9557 107.096 14.777 102.904 14.777 97.7487V95.5232C14.777 90.3674 18.9557 86.1761 24.0959 86.1761H51.2391C51.3131 87.3259 51.461 88.4757 51.6829 89.5885H28.1267C27.5351 89.5885 27.0913 90.0707 27.0913 90.6271C27.0913 91.2206 27.572 91.6657 28.1267 91.6657H52.2376C55.0111 100.345 63.1466 106.688 72.7244 106.688C82.3022 106.688 90.4377 100.382 93.2112 91.6657H117.322C117.914 91.6657 118.358 91.1835 118.358 90.6271C118.358 90.0336 117.877 89.5885 117.322 89.5885H93.7659C93.9878 88.4757 94.1357 87.363 94.2097 86.1761H121.353C126.493 86.1761 130.635 90.3674 130.635 95.5232ZM53.31 85.1375C53.31 84.7666 53.31 84.4328 53.347 84.0989C53.4209 82.8378 53.6058 81.6138 53.9017 80.4268C54.0866 79.7221 54.3085 79.0174 54.5673 78.3126C57.3408 70.9313 64.4409 65.6643 72.7614 65.6643C81.0818 65.6643 88.182 70.9313 90.9554 78.3126C91.2143 78.9803 91.4362 79.685 91.6211 80.4268C91.9169 81.6138 92.1018 82.8378 92.1758 84.0989C92.1758 84.4328 92.2128 84.8037 92.2128 85.1375C92.2128 85.5084 92.2128 85.8422 92.1758 86.1761C92.1018 87.3259 91.9539 88.4757 91.695 89.5885C91.5101 90.2932 91.3252 90.998 91.0664 91.7028C88.3669 99.2324 81.1928 104.611 72.7984 104.611C64.4039 104.611 57.2298 99.2324 54.5303 91.7028C54.2715 91.0351 54.0866 90.3303 53.9017 89.5885C53.6428 88.4757 53.4579 87.363 53.4209 86.1761C53.31 85.8422 53.31 85.4713 53.31 85.1375ZM143.134 72.5262C143.134 78.869 137.994 84.0618 131.633 84.0618H121.353H94.2097C94.1357 82.8007 93.9878 81.5767 93.7289 80.3898H126.789C127.381 80.3898 127.824 79.9075 127.824 79.3512C127.824 78.7577 127.344 78.3126 126.789 78.3126H93.1742C90.3268 69.7444 82.2652 63.55 72.7614 63.55C63.2576 63.55 55.196 69.7444 52.3485 78.3126H18.7339C18.1422 78.3126 17.6984 78.7948 17.6984 79.3512C17.6984 79.9446 18.1792 80.3898 18.7339 80.3898H51.7938C51.535 81.5767 51.3501 82.8007 51.3131 84.0618H24.1699H13.8895C7.56596 84.0618 2.38877 78.906 2.38877 72.5262V69.8186C2.38877 63.4759 7.52898 58.283 13.8895 58.283H24.1699H121.427H131.707C138.031 58.283 143.208 63.4388 143.208 69.8186V72.5262H143.134Z" fill="#1B1464"/>
<path d="M58.6351 89.5884C58.857 90.3303 59.1528 91.035 59.4856 91.7027C61.8893 96.5617 66.9186 99.9371 72.7244 99.9371C78.5302 99.9371 83.5225 96.5617 85.9632 91.7027C86.296 91.035 86.5918 90.3303 86.8137 89.5884C87.1465 88.5128 87.3684 87.3629 87.4424 86.176C87.4794 85.8422 87.4794 85.4712 87.4794 85.1374C87.4794 84.7665 87.4794 84.4327 87.4424 84.0989C87.3684 82.8377 87.1096 81.6137 86.7028 80.4268C86.4439 79.6849 86.1481 78.9802 85.8153 78.3125C83.3376 73.5648 78.4193 70.3378 72.7244 70.3378C67.0295 70.3378 62.1112 73.6019 59.6335 78.3125C59.3007 78.9802 58.9679 79.6849 58.746 80.4268C58.3392 81.5766 58.1174 82.8007 58.0064 84.0989C57.9694 84.4327 57.9694 84.8036 57.9694 85.1374C57.9694 85.5083 57.9694 85.8422 58.0064 86.176C58.0804 87.3629 58.3023 88.4757 58.6351 89.5884ZM60.1143 84.0618C60.2252 82.7636 60.521 81.5395 60.9648 80.3897C61.2606 79.6478 61.6304 78.9431 62.0372 78.2754C64.293 74.7517 68.2129 72.4149 72.6874 72.4149C77.162 72.4149 81.1188 74.7517 83.3376 78.2754C83.7444 78.9431 84.1142 79.6478 84.41 80.3897C84.8538 81.5395 85.1496 82.7636 85.2606 84.0618C85.2976 84.3956 85.2975 84.7665 85.2975 85.1003C85.2975 85.4712 85.2606 85.8051 85.2606 86.1389C85.1496 87.3259 84.8908 88.4757 84.484 89.5514C84.2251 90.2932 83.8553 90.998 83.4486 91.6656C81.2298 95.3377 77.199 97.7858 72.6135 97.7858C68.028 97.7858 63.9972 95.3377 61.7784 91.6656C61.3716 90.998 61.0387 90.2932 60.7429 89.5514C60.3361 88.4757 60.0773 87.3259 59.9663 86.1389C59.9294 85.8051 59.9294 85.4342 59.9294 85.1003C60.0773 84.7665 60.0773 84.3956 60.1143 84.0618Z" fill="#1B1464"/>
</svg>
