<svg width="70" height="70" viewBox="0 0 142 142" fill="none" xmlns="http://www.w3.org/2000/svg">
<path d="M71.0125 141.579C109.94 141.579 141.496 109.927 141.496 70.8818C141.496 31.8369 109.94 0.184753 71.0125 0.184753C32.0855 0.184753 0.528992 31.8369 0.528992 70.8818C0.528992 109.927 32.0855 141.579 71.0125 141.579Z" fill="#FCECA5"/>
<path d="M114.501 61.6459C112.541 58.048 110.84 54.8952 110.507 51.8537H115.166C115.721 51.8537 116.202 51.4086 116.202 50.8151C116.202 50.5184 116.054 50.2216 115.869 50.0362L105.958 39.1312V34.198C109.989 33.6416 113.059 30.192 113.059 26.0378C113.059 21.5126 109.361 17.8034 104.849 17.8034H25.4904C20.9788 17.8034 17.2808 21.5126 17.2808 26.0378C17.2808 30.192 20.3871 33.6787 24.4179 34.198V39.1312L14.4334 50.1104C14.1745 50.4071 14.1006 50.8522 14.2485 51.2231C14.3964 51.594 14.7662 51.8537 15.173 51.8537H19.8325C19.4996 54.8952 17.7986 58.048 15.8386 61.6459C12.9542 66.95 9.69998 72.9218 9.69998 80.674C9.69998 93.6191 11.8818 98.8119 16.6152 110.236L17.3548 111.98C22.458 124.257 24.381 140.355 24.4179 140.503C24.4919 141.022 24.8987 141.43 25.4534 141.43H104.96C105.478 141.43 105.921 141.022 105.995 140.503C106.032 140.355 107.918 124.257 113.059 111.98L113.798 110.236C118.569 98.8119 120.713 93.6191 120.713 80.674C120.639 72.9589 117.385 66.95 114.501 61.6459ZM26.4518 34.3463H103.888V38.5748H26.4518V34.3463ZM19.3517 26.112C19.3517 22.6995 22.1252 19.9176 25.5273 19.9176H104.886C108.288 19.9176 111.062 22.6995 111.062 26.112C111.062 29.5244 108.288 32.3063 104.886 32.3063H25.4904C22.0882 32.2692 19.3517 29.4873 19.3517 26.112ZM25.8971 40.6148H104.479L112.874 49.8136H109.472H20.9419H17.5397L25.8971 40.6148ZM111.838 109.457L111.099 111.201C106.587 122.068 104.516 135.755 104.035 139.39H26.3409C25.8602 135.755 23.7893 122.068 19.2778 111.201L18.5382 109.457C13.8787 98.2926 11.7708 93.2111 11.7708 80.674C11.7708 73.4411 14.8772 67.6919 17.6506 62.6103C19.6845 58.9011 21.5705 55.3774 21.9033 51.8166H108.473C108.806 55.3403 110.692 58.864 112.726 62.6103C115.499 67.6919 118.606 73.4411 118.606 80.674C118.606 93.2111 116.461 98.2926 111.838 109.457Z" fill="#1B1464"/>
<path d="M103.888 34.3463H26.4518V38.5748H103.888V34.3463Z" fill="#F19202"/>
<path d="M25.4903 32.2692H104.849C108.251 32.2692 111.025 29.4873 111.025 26.0748C111.025 22.6624 108.251 19.8805 104.849 19.8805H25.4903C22.0882 19.8805 19.3147 22.6624 19.3147 26.0748C19.3517 29.4873 22.0882 32.2692 25.4903 32.2692Z" fill="white"/>
<path d="M109.435 49.8136H112.837L104.479 40.6148H25.8971L17.5027 49.8136H20.9418H109.435Z" fill="#F19202"/>
<path d="M112.726 62.6474C110.692 58.9382 108.806 55.4145 108.473 51.8537H21.9033C21.5705 55.3774 19.6475 58.9011 17.6506 62.6474C14.8771 67.729 11.7708 73.4782 11.7708 80.7111C11.7708 93.2111 13.8787 98.3297 18.5381 109.494L19.2777 111.238C23.7893 122.106 25.8601 135.792 26.3409 139.427H104.035C104.516 135.792 106.587 122.106 111.099 111.238L111.838 109.494C116.498 98.3297 118.606 93.2482 118.606 80.7482C118.606 73.4782 115.462 67.729 112.726 62.6474Z" fill="#F19202"/>
<path d="M54.3716 77.1132C54.5195 78.2631 55.0372 79.7096 55.9247 81.4901C56.9602 83.5301 60.1035 88.9084 61.1019 90.5405C61.6936 90.1695 62.3222 89.8728 62.9879 89.6503L59.9556 78.4485C59.8816 78.1518 60.0295 77.8551 60.3254 77.7809C60.6212 77.7067 60.917 77.8551 60.991 78.1518L64.0233 89.3906C64.4301 89.3164 64.8369 89.2793 65.2806 89.2793C65.3916 89.2793 65.4655 89.2793 65.5765 89.2793C65.9463 85.5331 66.538 76.8165 65.5395 74.4797C64.1712 71.364 61.6936 72.2171 61.5827 72.2542C61.4347 72.2913 61.2868 72.2913 61.1389 72.2171C60.991 72.1429 60.917 72.0316 60.88 71.8833C60.2884 69.5836 58.6613 68.0257 57.8477 67.321C56.5534 70.1399 56.8492 72.8477 56.8492 72.8847C56.8862 73.1073 56.7383 73.3298 56.5164 73.4411C55.481 73.8862 54.8523 74.4797 54.5565 75.2957C54.3346 75.8521 54.2606 76.4456 54.3716 77.1132Z" fill="white"/>
<path d="M66.5749 89.4648C66.9447 89.539 67.3145 89.6132 67.6843 89.7615C68.5349 88.1666 71.6042 82.5286 72.8615 80.5257C73.86 78.9307 74.7845 77.7809 75.709 76.9648C75.746 71.772 73.897 67.8403 73.2313 66.542C69.2375 68.8046 66.6489 72.0687 65.9093 73.0702C66.0942 73.3669 66.3161 73.7378 66.464 74.1088C67.7213 77.0019 66.8338 87.0909 66.5749 89.4648Z" fill="#F19202"/>
<path d="M65.2437 90.3921C61.5457 90.3921 58.5503 93.3965 58.5503 97.1057C58.5503 100.815 61.5457 103.819 65.2437 103.819C68.9417 103.819 71.937 100.815 71.937 97.1057C71.9 93.3965 68.9047 90.3921 65.2437 90.3921Z" fill="#F19202"/>
<path d="M68.6828 90.1324C69.3114 90.4292 69.8661 90.8372 70.3838 91.2823L78.4085 82.9366C78.6303 82.7141 78.9632 82.7141 79.1481 82.9366C79.3699 83.1592 79.3699 83.493 79.1481 83.6785L71.1234 92.0612C71.4563 92.4692 71.7521 92.8772 72.011 93.3594C75.4131 91.7274 83.1419 87.7957 84.6211 85.7556C86.618 82.9737 84.5841 81.2675 84.4732 81.1933C84.3622 81.082 84.2883 80.9708 84.2883 80.8224C84.2883 80.674 84.3252 80.5257 84.4362 80.4144C86.1003 78.7452 86.618 76.5198 86.7659 75.4441C83.7336 75.7779 81.5148 77.4099 81.4778 77.447C81.2929 77.5954 81.0341 77.5954 80.8492 77.447C79.9247 76.7794 79.1111 76.5568 78.2606 76.7052C76.8923 76.9648 75.4501 78.3743 73.749 81.0821C72.5657 82.9737 69.6073 88.4633 68.6828 90.1324Z" fill="white"/>
<path d="M85.5086 86.3862C83.6966 88.9084 74.6735 93.3223 72.4917 94.3609C72.6396 94.806 72.7876 95.2511 72.8615 95.6962C74.6735 95.6591 81.0341 95.4737 83.4008 95.5479C85.7305 95.622 87.4316 95.9559 88.6519 96.5122C92.0171 94.5835 94.7166 90.2437 95.5301 88.8342C91.6842 86.6087 86.9138 86.2007 85.6935 86.1265C85.6196 86.2007 85.5826 86.2749 85.5086 86.3862Z" fill="#F19202"/>
<path d="M45.5334 84.5316C48.9356 84.8283 58.6243 91.5419 59.3639 92.0612C59.6228 91.7274 59.9186 91.4677 60.2514 91.171C59.3639 89.6502 56.0727 84.0865 55.0003 81.9722C54.1128 80.1918 53.5581 78.7082 53.3732 77.4841C49.4163 74.8506 44.6829 74.6651 43.2037 74.6651C42.9078 79.4871 44.6829 83.4559 45.2006 84.4945C45.3115 84.5316 45.4225 84.5316 45.5334 84.5316Z" fill="#F19202"/>
<path d="M90.39 101.483C90.1681 101.408 90.0572 101.186 90.0572 100.926C90.1681 99.8134 89.9462 98.9603 89.3915 98.3298C88.467 97.2541 86.5441 96.6977 83.3638 96.5864C81.108 96.5123 74.8954 96.6606 72.9724 96.7348C72.9724 96.8461 72.9724 96.9944 72.9724 97.1057C72.9724 97.6992 72.8985 98.2556 72.7875 98.812L84.0294 101.594C84.3253 101.668 84.4732 101.965 84.4362 102.224C84.3622 102.484 84.1404 102.632 83.9185 102.632C83.8815 102.632 83.8445 102.632 83.8076 102.632L72.4917 99.8505C72.3068 100.333 72.0849 100.815 71.8261 101.223C74.8954 103.337 82.2544 108.159 84.806 108.382C88.2082 108.715 88.6519 106.082 88.6519 105.971C88.6889 105.822 88.7629 105.674 88.8738 105.6C88.9847 105.526 89.1696 105.488 89.3176 105.526C91.5733 106.119 93.7551 105.451 94.7536 105.043C92.9046 102.595 90.39 101.483 90.39 101.483Z" fill="white"/>
<path d="M69.1635 103.782C68.5719 104.116 67.9432 104.413 67.3145 104.598L70.7167 115.911C70.7906 116.208 70.6427 116.505 70.3469 116.579C70.3099 116.579 70.2359 116.616 70.199 116.616C69.9771 116.616 69.7552 116.468 69.6813 116.245L66.2791 104.858C65.9463 104.895 65.6135 104.932 65.2437 104.932C65.0958 104.932 64.9478 104.932 64.8369 104.932C64.578 108.493 64.1713 117.692 65.2807 120.028C66.7599 123.144 69.2005 122.18 69.3115 122.143C69.4594 122.069 69.6073 122.106 69.7552 122.143C69.9031 122.217 69.9771 122.328 70.0511 122.477C70.6797 124.739 72.3808 126.297 73.2313 126.928C74.4147 124.071 74.0818 121.364 74.0818 121.327C74.0449 121.104 74.1558 120.882 74.3777 120.77C75.3761 120.288 76.0048 119.695 76.2637 118.879C76.7074 117.543 76.1897 115.615 74.6735 112.796C73.5272 110.718 70.125 105.303 69.1635 103.782Z" fill="white"/>
<path d="M63.7645 104.71C63.3577 104.635 62.9879 104.524 62.6181 104.376C61.9155 105.637 58.5133 111.609 57.1451 113.686C56.1836 115.132 55.3331 116.208 54.4825 116.987C54.4825 118.026 54.5565 122.588 56.9232 127.15C58.2545 126.297 62.1004 123.589 64.2452 120.325C62.877 117.172 63.6535 106.045 63.7645 104.71Z" fill="#F19202"/>
<path d="M84.6581 109.42C81.5148 109.123 73.0094 103.337 71.1605 102.076C70.8276 102.484 70.4578 102.855 70.0141 103.189C70.9755 104.672 74.3777 110.162 75.5241 112.239C76.4116 113.908 77.0032 115.318 77.2251 116.505C81.4408 118.804 85.8414 119.064 87.3206 119.101C87.2467 114.465 85.5826 110.533 85.1018 109.457C84.9909 109.457 84.843 109.457 84.6581 109.42Z" fill="#F19202"/>
<path d="M39.8385 92.5063C40.0604 92.5805 40.1713 92.8031 40.1713 93.0627C40.0604 94.1755 40.2823 95.0286 40.837 95.6591C41.0588 95.9188 41.3547 96.1413 41.6875 96.3268C41.6875 96.3268 41.7245 96.3268 41.7245 96.3639C42.7969 96.9573 44.498 97.2912 46.8647 97.3653C49.2314 97.4395 55.9247 97.2541 57.4779 97.1799C57.4779 97.1428 57.4779 97.1057 57.4779 97.1057C57.4779 96.438 57.5518 95.8075 57.6998 95.214L46.1251 92.3951C45.8292 92.3209 45.6813 92.0241 45.7183 91.7645C45.7923 91.4678 46.0881 91.3194 46.347 91.3565L57.9956 94.2125C58.1805 93.7674 58.4024 93.3594 58.6613 92.9514C55.8138 90.9485 47.9741 85.8669 45.3855 85.6072C41.9833 85.3105 41.5396 87.9069 41.5396 88.0182C41.5026 88.1666 41.4286 88.3149 41.3177 88.3891C41.2068 88.4633 41.0219 88.5004 40.8739 88.4633C38.5812 87.8698 36.3994 88.5375 35.4379 88.9455C37.2869 91.3936 39.8015 92.5063 39.8385 92.5063Z" fill="white"/>
<path d="M44.6459 107.566C46.5319 105.006 56.0727 100.667 57.9956 99.8134C57.8107 99.3312 57.6628 98.8119 57.5889 98.2555C56.3685 98.2926 51.4132 98.441 48.3809 98.441C47.7892 98.441 47.2715 98.441 46.8647 98.4039C44.461 98.3297 42.7599 97.9959 41.5026 97.4024C40.5042 98.1814 36.9541 101.112 34.8832 104.932C36.1775 105.637 40.2083 107.603 44.6089 107.603C44.6089 107.603 44.6089 107.603 44.6459 107.566Z" fill="#F19202"/>
<path d="M61.6197 103.968C61.028 103.634 60.4733 103.263 59.9925 102.818L51.6721 111.126C51.5611 111.238 51.4502 111.275 51.3023 111.275C51.1544 111.275 51.0434 111.238 50.9325 111.126C50.7106 110.904 50.7106 110.57 50.9325 110.385L59.2899 102.039C58.9571 101.668 58.6982 101.223 58.4394 100.778C55.0742 102.261 47.0496 106.156 45.4964 108.196C43.4625 110.941 45.4595 112.684 45.5334 112.758C45.6444 112.87 45.7183 112.981 45.7183 113.166C45.7183 113.315 45.6813 113.463 45.5704 113.574C43.8693 115.207 43.3146 117.432 43.1297 118.471C46.1991 118.211 48.4178 116.616 48.4548 116.579C48.6397 116.431 48.8986 116.431 49.0835 116.579C49.971 117.247 50.8215 117.506 51.6351 117.358C52.2638 117.247 52.8924 116.913 53.595 116.319C54.4086 115.615 55.2961 114.539 56.2576 113.092C57.5519 111.164 60.8061 105.414 61.6197 103.968Z" fill="white"/>
<path d="M65.2437 92.4322C62.6921 92.4322 60.6212 94.5093 60.6212 97.0686C60.6212 99.628 62.6921 101.705 65.2437 101.705C67.7953 101.705 69.8661 99.628 69.8661 97.0686C69.8661 94.5464 67.7953 92.4322 65.2437 92.4322ZM65.2437 100.667C63.2837 100.667 61.6936 99.0716 61.6936 97.1057C61.6936 95.1399 63.2837 93.5449 65.2437 93.5449C67.2036 93.5449 68.7937 95.1399 68.7937 97.1057C68.7937 99.0345 67.2036 100.667 65.2437 100.667Z" fill="#1B1464"/>
<path d="M96.6765 88.8713C96.8245 88.6117 96.7135 88.315 96.4916 88.1666C92.7197 85.7927 88.0972 85.1993 86.2113 85.088C87.0618 83.0108 86.1373 81.4901 85.5456 80.7853C87.7644 78.2631 87.8754 75.0361 87.8754 74.8877C87.8754 74.7394 87.8384 74.591 87.7274 74.4797C87.6165 74.3684 87.4686 74.3313 87.3207 74.3313C84.2883 74.4797 81.9956 75.815 81.145 76.3714C80.1096 75.7037 79.0742 75.4812 78.0757 75.6666C77.6319 75.7408 77.1882 75.9263 76.7444 76.1859C76.5965 69.9545 73.9709 65.726 73.86 65.5406C73.7121 65.318 73.4162 65.2068 73.1574 65.3551C68.9417 67.6177 66.1312 70.9189 65.1697 72.2542C63.9124 71.0673 62.4702 71.1044 61.6936 71.2156C60.6582 68.0257 57.9587 66.2453 57.8477 66.1711C57.7368 66.097 57.5519 66.0599 57.4409 66.097C57.293 66.1341 57.1821 66.2453 57.1081 66.3566C55.7029 69.0272 55.6289 71.7349 55.7029 72.6993C54.5935 73.2557 53.8539 74.0346 53.5211 74.999C53.3732 75.3699 53.2992 75.7779 53.2992 76.1859C48.4179 73.2557 42.9449 73.5895 42.686 73.6266C42.4271 73.6266 42.2053 73.8491 42.2053 74.1088C41.7615 78.9307 43.3516 82.9737 44.0912 84.5687C41.8724 84.9025 41.0219 86.4604 40.7261 87.3135C37.4349 86.6829 34.5874 88.2037 34.4765 88.2779C34.3286 88.3521 34.2546 88.4633 34.2176 88.6117C34.1806 88.7601 34.2176 88.9084 34.2916 89.0197C35.9557 91.5419 38.2854 92.8773 39.1359 93.3224C39.0989 94.5464 39.3948 95.5849 40.0974 96.3639C40.2453 96.5493 40.3932 96.6977 40.5781 96.8461C39.1729 97.9588 35.6968 101 33.7369 104.969C33.6259 105.229 33.6999 105.526 33.9218 105.674C34.1067 105.785 38.6182 108.53 44.0173 108.753C43.0188 110.904 43.9433 112.499 44.498 113.204C42.2422 115.689 42.0574 118.916 42.0204 119.064C42.0204 119.212 42.0573 119.361 42.1683 119.472C42.2792 119.583 42.3902 119.62 42.5381 119.62C45.5704 119.546 47.9001 118.248 48.7507 117.729C49.7861 118.396 50.8216 118.656 51.82 118.508C52.3377 118.434 52.8924 118.211 53.4102 117.877C53.4841 119.806 53.8909 124.034 56.2576 128.226C56.3316 128.337 56.4425 128.448 56.5904 128.485C56.6274 128.485 56.6644 128.485 56.7383 128.485C56.8493 128.485 56.9232 128.448 56.9972 128.411C57.2191 128.3 62.0264 125.37 64.7999 121.401C66.2421 123.478 68.1651 123.441 69.0896 123.255C70.199 126.408 72.9355 128.114 73.0834 128.189C73.1574 128.226 73.2683 128.263 73.3423 128.263C73.3792 128.263 73.4532 128.263 73.4902 128.226C73.6381 128.189 73.7491 128.077 73.823 127.966C75.1543 125.258 75.1543 122.551 75.0803 121.586C76.1527 120.993 76.8923 120.214 77.1882 119.25C77.3361 118.804 77.41 118.359 77.41 117.84C81.8476 120.028 86.1743 120.214 87.5056 120.214C87.7274 120.214 87.8753 120.214 87.9123 120.214C88.2082 120.214 88.43 119.954 88.43 119.695C88.467 114.984 86.9508 111.015 86.2852 109.457C88.3931 109.123 89.2436 107.603 89.5394 106.75C92.8306 107.38 95.6781 105.896 95.789 105.822C95.9369 105.748 96.0109 105.637 96.0479 105.488C96.0849 105.34 96.0479 105.192 95.9739 105.08C94.3468 102.521 92.0171 101.186 91.1296 100.741C91.1665 99.5167 90.8707 98.4781 90.2051 97.6992C90.0572 97.5137 89.8723 97.3283 89.6504 97.1799C93.6812 94.5093 96.5656 89.0939 96.6765 88.8713ZM78.2976 76.7052C79.1111 76.5568 79.9617 76.7794 80.8862 77.447C81.0711 77.5954 81.3299 77.5954 81.5148 77.447C81.5518 77.447 83.7336 75.7779 86.8029 75.4441C86.655 76.4827 86.1373 78.7082 84.4732 80.4144C84.3623 80.5257 84.3253 80.6741 84.3253 80.8224C84.3253 80.9708 84.3992 81.1192 84.5102 81.1933C84.5841 81.2675 86.618 82.9737 84.6581 85.7556C83.1789 87.7957 75.4501 91.7645 72.048 93.3594C71.7891 92.9143 71.4933 92.4692 71.1605 92.0612L79.2221 83.6785C79.4439 83.4559 79.407 83.1221 79.2221 82.9367C79.0002 82.7141 78.6674 82.7512 78.4825 82.9367L70.4578 91.2823C69.9401 90.8372 69.3854 90.4292 68.7568 90.1325C69.6813 88.4262 72.6397 82.9737 73.86 81.045C75.4871 78.3373 76.9293 76.9649 78.2976 76.7052ZM65.2437 103.782C61.5457 103.782 58.5503 100.778 58.5503 97.0686C58.5503 93.3594 61.5457 90.355 65.2437 90.355C68.9417 90.355 71.937 93.3594 71.937 97.0686C71.937 100.778 68.9047 103.782 65.2437 103.782ZM73.2313 66.505C73.897 67.7661 75.746 71.7349 75.709 76.9278C74.8215 77.7067 73.897 78.8936 72.8615 80.4886C71.6042 82.4915 68.5349 88.1295 67.6844 89.7245C67.3146 89.6132 66.9448 89.5019 66.575 89.4277C66.7968 87.0538 67.6844 76.9649 66.464 74.1088C66.2791 73.7008 66.0942 73.367 65.9093 73.0702C66.6489 72.0687 69.2375 68.7676 73.2313 66.505ZM54.4826 75.3328C54.7784 74.5539 55.4071 73.9233 56.4425 73.4782C56.6644 73.367 56.7753 73.1444 56.7753 72.9219C56.7753 72.8848 56.4795 70.1771 57.7738 67.3581C58.5873 68.0257 60.2514 69.6207 60.8061 71.9204C60.8431 72.0687 60.954 72.18 61.065 72.2542C61.2129 72.3284 61.3608 72.3284 61.5087 72.2913C61.6197 72.2542 64.0973 71.364 65.4656 74.5168C66.464 76.8165 65.8724 85.5331 65.5026 89.3164C65.3916 89.3164 65.3176 89.3164 65.2067 89.3164C64.7629 89.3164 64.3562 89.3535 63.9494 89.4277L60.9171 78.1889C60.8431 77.8922 60.5473 77.7438 60.2514 77.818C59.9556 77.8922 59.8077 78.1889 59.8816 78.4856L62.914 89.6873C62.2483 89.9099 61.6197 90.2066 61.028 90.5776C60.0665 88.9455 56.8862 83.5672 55.8508 81.5271C54.9633 79.7467 54.4456 78.3002 54.2977 77.1503V77.1132C54.2607 76.4085 54.3346 75.8521 54.4826 75.3328ZM43.1667 74.6652C44.6459 74.6652 49.3424 74.8506 53.3362 77.4842C53.5211 78.7082 54.0758 80.1918 54.9633 81.9723C56.0357 84.0865 59.3269 89.6503 60.2144 91.171C59.8816 91.4307 59.6228 91.7274 59.3269 92.0612C58.5873 91.542 48.8986 84.8283 45.4965 84.5316C45.3855 84.5316 45.2746 84.5316 45.1637 84.4945C44.6829 83.4559 42.8709 79.4871 43.1667 74.6652ZM40.1714 93.0256C40.2084 92.8031 40.0604 92.5805 39.8386 92.4692C39.8016 92.4692 37.2869 91.3936 35.4749 88.9084C36.4734 88.5004 38.6182 87.8328 40.911 88.4262C41.0589 88.4633 41.2068 88.4262 41.3547 88.3521C41.4657 88.2779 41.5766 88.1295 41.5766 87.9811C41.5766 87.8699 42.0204 85.2734 45.4225 85.5702C48.0481 85.7927 55.8508 90.9114 58.6983 92.9143C58.4394 93.3224 58.2175 93.7304 58.0326 94.1755L46.384 91.3194C46.0881 91.2452 45.7923 91.4307 45.7553 91.7274C45.6814 92.0241 45.8663 92.3209 46.1621 92.358L57.7368 95.177C57.5889 95.7704 57.5149 96.401 57.5149 97.0686C57.5149 97.1057 57.5149 97.1428 57.5149 97.1428C55.9618 97.1799 49.2684 97.4025 46.9017 97.3283C44.498 97.2541 42.8339 96.9203 41.7615 96.3268C41.7615 96.3268 41.7245 96.3268 41.7245 96.2897C41.3917 96.1043 41.0959 95.8817 40.874 95.622C40.2823 94.9915 40.0604 94.1384 40.1714 93.0256ZM34.8463 104.932C36.9171 101.112 40.5042 98.1814 41.4657 97.4025C42.686 97.9959 44.4241 98.3297 46.8277 98.4039C47.2345 98.4039 47.7522 98.441 48.3439 98.441C51.3763 98.441 56.3316 98.2927 57.5519 98.2556C57.6259 98.812 57.7738 99.3312 57.9587 99.8134C56.0357 100.667 46.5319 105.006 44.609 107.566C44.609 107.603 44.572 107.603 44.572 107.64C40.1714 107.603 36.1406 105.637 34.8463 104.932ZM51.6351 117.358C50.8216 117.506 49.971 117.247 49.0835 116.579C48.8986 116.431 48.6397 116.431 48.4548 116.579C48.4179 116.579 46.1991 118.174 43.1298 118.471C43.3147 117.432 43.8694 115.207 45.5704 113.574C45.6814 113.463 45.7553 113.315 45.7184 113.166C45.7184 113.018 45.6444 112.87 45.5335 112.758C45.4595 112.684 43.4626 110.941 45.4965 108.196C47.0126 106.156 55.0742 102.261 58.4394 100.778C58.6613 101.223 58.9571 101.631 59.2899 102.039L50.9325 110.385C50.7106 110.607 50.7106 110.941 50.9325 111.126C51.0434 111.238 51.1914 111.275 51.3023 111.275C51.4502 111.275 51.5612 111.238 51.6721 111.126L59.9926 102.818C60.4733 103.263 61.028 103.671 61.6197 103.968C60.8061 105.377 57.5519 111.164 56.2576 113.092C55.2961 114.539 54.4086 115.615 53.5951 116.319C52.8924 116.913 52.2638 117.247 51.6351 117.358ZM56.9232 127.15C54.5195 122.588 54.4456 118.026 54.4826 116.987C55.3331 116.208 56.2206 115.132 57.1451 113.686C58.5134 111.609 61.9155 105.674 62.6181 104.376C62.9879 104.524 63.3577 104.598 63.7645 104.71C63.6536 106.045 62.877 117.135 64.2452 120.288C62.1004 123.589 58.2545 126.26 56.9232 127.15ZM76.1897 118.842C75.9309 119.658 75.3022 120.251 74.3038 120.733C74.0819 120.844 73.9709 121.067 74.0079 121.29C74.0079 121.327 74.3777 124.034 73.1574 126.89C72.3068 126.223 70.6058 124.702 69.9771 122.439C69.9401 122.291 69.8292 122.18 69.6813 122.106C69.5334 122.031 69.3854 122.031 69.2375 122.106C69.1266 122.143 66.6859 123.107 65.2067 119.991C64.0973 117.617 64.5041 108.456 64.763 104.895C64.9109 104.895 65.0588 104.895 65.1697 104.895C65.5026 104.895 65.8723 104.858 66.2052 104.821L69.6073 116.208C69.6813 116.431 69.9032 116.579 70.125 116.579C70.162 116.579 70.236 116.579 70.2729 116.542C70.5688 116.468 70.7167 116.171 70.6427 115.874L67.2406 104.561C67.9062 104.376 68.5349 104.116 69.0896 103.745C70.0511 105.266 73.4532 110.681 74.5256 112.721C76.1527 115.54 76.6335 117.506 76.1897 118.842ZM77.2621 116.505C77.0033 115.318 76.4486 113.908 75.5611 112.239C74.4147 110.125 71.0125 104.672 70.0511 103.189C70.4579 102.855 70.8276 102.484 71.1974 102.076C73.0464 103.337 81.5518 109.123 84.6951 109.42C84.843 109.42 85.0279 109.457 85.1758 109.457C85.6565 110.533 87.3206 114.465 87.3946 119.101C85.9154 119.064 81.5148 118.804 77.2621 116.505ZM90.0571 100.926C90.0202 101.149 90.1681 101.371 90.39 101.483C90.427 101.483 92.9416 102.595 94.7536 105.043C93.7551 105.451 91.5733 106.119 89.3176 105.526C89.1696 105.488 89.0217 105.526 88.8738 105.6C88.7628 105.674 88.6519 105.822 88.6519 105.971C88.6519 106.082 88.2082 108.678 84.806 108.382C82.2914 108.159 74.8954 103.337 71.8261 101.223C72.085 100.778 72.3068 100.333 72.4917 99.8505L83.8076 102.632C83.8446 102.632 83.8815 102.632 83.9185 102.632C84.1404 102.632 84.3623 102.484 84.4362 102.224C84.5102 101.928 84.3253 101.631 84.0294 101.594L72.7876 98.812C72.8985 98.2556 72.9725 97.6992 72.9725 97.1057C72.9725 96.9944 72.9725 96.8461 72.9725 96.7348C74.8954 96.6606 81.108 96.5123 83.3638 96.5864C86.5441 96.6977 88.467 97.2541 89.3915 98.3298C89.9462 98.9603 90.1681 99.8134 90.0571 100.926ZM88.6149 96.4752C87.3946 95.9188 85.6935 95.585 83.4008 95.5108C81.0341 95.4366 74.6735 95.585 72.8615 95.6591C72.7876 95.214 72.6397 94.7689 72.4917 94.3238C74.6735 93.2853 83.7336 88.9084 85.5086 86.3491C85.5826 86.2749 85.6196 86.1636 85.6935 86.0895C86.9139 86.1636 91.6843 86.5346 95.5302 88.7972C94.6796 90.2066 91.9801 94.5464 88.6149 96.4752Z" fill="#1B1464"/>
</svg>
