<svg>
<symbol id="fb-icon" viewBox="0 0 22 22" xmlns="http://www.w3.org/2000/svg">
<path d="M16.5 1.83325H13.75C12.5344 1.83325 11.3686 2.30674 10.5091 3.14957C9.64956 3.99239 9.16667 5.1355 9.16667 6.32743V9.02394H6.41667V12.6193H9.16667V19.81H12.8333V12.6193H15.5833L16.5 9.02394H12.8333V6.32743C12.8333 6.08905 12.9299 5.86042 13.1018 5.69186C13.2737 5.52329 13.5069 5.4286 13.75 5.4286H16.5V1.83325Z"  stroke-width="1.1" stroke-linecap="round" stroke-linejoin="round"/>
</symbol>

<symbol id="ig-icon" viewBox="0 0 16 16" xmlns="http://www.w3.org/2000/svg">
<path d="M7.98438 0.0625C9.31771 0.0625 10.4062 0.078125 11.25 0.109375C11.9688 0.140625 12.6094 0.265625 13.1719 0.484375C13.7135 0.692708 14.1823 0.994792 14.5781 1.39062C14.974 1.78646 15.276 2.25521 15.4844 2.79687C15.7031 3.35937 15.8281 4 15.8594 4.71875C15.8906 5.5625 15.9062 6.65104 15.9062 7.98437C15.9062 9.31771 15.8906 10.4062 15.8594 11.25C15.8281 11.9687 15.7031 12.6094 15.4844 13.1719C15.276 13.7135 14.974 14.1823 14.5781 14.5781C14.1823 14.974 13.7135 15.276 13.1719 15.4844C12.6094 15.7031 11.9688 15.8281 11.25 15.8594C10.4062 15.8906 9.31771 15.9062 7.98438 15.9062C6.65104 15.9062 5.5625 15.8906 4.71875 15.8594C4 15.8281 3.35938 15.7031 2.79688 15.4844C2.25521 15.276 1.78646 14.974 1.39062 14.5781C0.994792 14.1823 0.692708 13.7135 0.484375 13.1719C0.265625 12.6094 0.140625 11.9687 0.109375 11.25C0.078125 10.4062 0.0625 9.31771 0.0625 7.98437C0.0625 6.65104 0.078125 5.5625 0.109375 4.71875C0.140625 4 0.265625 3.35937 0.484375 2.79687C0.692708 2.25521 0.994792 1.78646 1.39062 1.39062C1.78646 0.994792 2.25521 0.692708 2.79688 0.484375C3.35938 0.265625 4 0.140625 4.71875 0.109375C5.5625 0.078125 6.65104 0.0625 7.98438 0.0625ZM7.98438 1.09375C6.59896 1.09375 5.46875 1.10937 4.59375 1.14062C4.03125 1.16146 3.51042 1.26042 3.03125 1.4375C2.28125 1.75 1.75 2.28125 1.4375 3.03125C1.26042 3.51042 1.16146 4.03125 1.14062 4.59375C1.10938 5.46875 1.09375 6.59896 1.09375 7.98437C1.09375 9.36979 1.10938 10.5 1.14062 11.375C1.16146 11.9375 1.26042 12.4583 1.4375 12.9375C1.75 13.6875 2.28125 14.2187 3.03125 14.5312C3.51042 14.7083 4.03125 14.8073 4.59375 14.8281C5.46875 14.8594 6.59896 14.875 7.98438 14.875C9.36979 14.875 10.5 14.8594 11.375 14.8281C11.9375 14.8073 12.4583 14.7083 12.9375 14.5312C13.6875 14.2187 14.2188 13.6875 14.5312 12.9375C14.7083 12.4583 14.8073 11.9375 14.8281 11.375C14.8594 10.5 14.875 9.36979 14.875 7.98437C14.875 6.59896 14.8594 5.46875 14.8281 4.59375C14.8073 4.03125 14.7083 3.51042 14.5312 3.03125C14.2188 2.28125 13.6875 1.75 12.9375 1.4375C12.4583 1.26042 11.9375 1.16146 11.375 1.14062C10.5 1.10937 9.36979 1.09375 7.98438 1.09375ZM7.98438 11.1562C8.85938 11.1562 9.60677 10.8464 10.2266 10.2266C10.8464 9.60677 11.1562 8.85937 11.1562 7.98437C11.1562 7.10937 10.8464 6.36198 10.2266 5.74219C9.60677 5.1224 8.85938 4.8125 7.98438 4.8125C7.10938 4.8125 6.36198 5.1224 5.74219 5.74219C5.1224 6.36198 4.8125 7.10937 4.8125 7.98437C4.8125 8.85937 5.1224 9.60677 5.74219 10.2266C6.36198 10.8464 7.10938 11.1562 7.98438 11.1562ZM7.98438 3.92187C9.10938 3.92187 10.0677 4.31771 10.8594 5.10937C11.651 5.90104 12.0469 6.85937 12.0469 7.98437C12.0469 9.10937 11.651 10.0677 10.8594 10.8594C10.0677 11.651 9.10938 12.0469 7.98438 12.0469C6.85938 12.0469 5.90104 11.651 5.10938 10.8594C4.31771 10.0677 3.92188 9.10937 3.92188 7.98437C3.92188 6.85937 4.31771 5.90104 5.10938 5.10937C5.90104 4.31771 6.85938 3.92187 7.98438 3.92187ZM13.1719 3.76562C13.1719 4.02604 13.0781 4.2474 12.8906 4.42969C12.7031 4.61198 12.474 4.70312 12.2031 4.70312C11.9427 4.70312 11.7214 4.61198 11.5391 4.42969C11.3568 4.2474 11.2656 4.02604 11.2656 3.76562C11.2656 3.49479 11.3568 3.26562 11.5391 3.07812C11.7214 2.89062 11.9427 2.79687 12.2031 2.79687C12.4635 2.79687 12.6901 2.89323 12.8828 3.08594C13.0755 3.27865 13.1719 3.50521 13.1719 3.76562Z"/>
</symbol>

<symbol id="yt-icon" viewBox="0 0 50 50" xmlns="http://www.w3.org/2000/svg">
<path d="M 24.402344 9 C 17.800781 9 11.601563 9.5 8.300781 10.199219 C 6.101563 10.699219 4.199219 12.199219 3.800781 14.5 C 3.402344 16.898438 3 20.5 3 25 C 3 29.5 3.398438 33 3.898438 35.5 C 4.300781 37.699219 6.199219 39.300781 8.398438 39.800781 C 11.902344 40.5 17.898438 41 24.5 41 C 31.101563 41 37.097656 40.5 40.597656 39.800781 C 42.800781 39.300781 44.699219 37.800781 45.097656 35.5 C 45.5 33 46 29.402344 46.097656 24.902344 C 46.097656 20.402344 45.597656 16.800781 45.097656 14.300781 C 44.699219 12.101563 42.800781 10.5 40.597656 10 C 37.097656 9.5 31 9 24.402344 9 Z M 24.402344 11 C 31.601563 11 37.398438 11.597656 40.199219 12.097656 C 41.699219 12.5 42.898438 13.5 43.097656 14.800781 C 43.699219 18 44.097656 21.402344 44.097656 24.902344 C 44 29.199219 43.5 32.699219 43.097656 35.199219 C 42.800781 37.097656 40.800781 37.699219 40.199219 37.902344 C 36.597656 38.601563 30.597656 39.097656 24.597656 39.097656 C 18.597656 39.097656 12.5 38.699219 9 37.902344 C 7.5 37.5 6.300781 36.5 6.101563 35.199219 C 5.300781 32.398438 5 28.699219 5 25 C 5 20.398438 5.402344 17 5.800781 14.902344 C 6.101563 13 8.199219 12.398438 8.699219 12.199219 C 12 11.5 18.101563 11 24.402344 11 Z M 19 17 L 19 33 L 33 25 Z M 21 20.402344 L 29 25 L 21 29.597656 Z"/>
</symbol>

<symbol id="gh-icon" xmlns="http://www.w3.org/2000/svg"  viewBox="0 0 24 24" >    
<path d="M10.9,2.1c-4.6,0.5-8.3,4.2-8.8,8.7c-0.5,4.7,2.2,8.9,6.3,10.5C8.7,21.4,9,21.2,9,20.8v-1.6c0,0-0.4,0.1-0.9,0.1 c-1.4,0-2-1.2-2.1-1.9c-0.1-0.4-0.3-0.7-0.6-1C5.1,16.3,5,16.3,5,16.2C5,16,5.3,16,5.4,16c0.6,0,1.1,0.7,1.3,1c0.5,0.8,1.1,1,1.4,1 c0.4,0,0.7-0.1,0.9-0.2c0.1-0.7,0.4-1.4,1-1.8c-2.3-0.5-4-1.8-4-4c0-1.1,0.5-2.2,1.2-3C7.1,8.8,7,8.3,7,7.6C7,7.2,7,6.6,7.3,6 c0,0,1.4,0,2.8,1.3C10.6,7.1,11.3,7,12,7s1.4,0.1,2,0.3C15.3,6,16.8,6,16.8,6C17,6.6,17,7.2,17,7.6c0,0.8-0.1,1.2-0.2,1.4 c0.7,0.8,1.2,1.8,1.2,3c0,2.2-1.7,3.5-4,4c0.6,0.5,1,1.4,1,2.3v2.6c0,0.3,0.3,0.6,0.7,0.5c3.7-1.5,6.3-5.1,6.3-9.3 C22,6.1,16.9,1.4,10.9,2.1z"/>
</symbol>

<symbol id="bmc-icon" viewBox="0 0 884 1279"  xmlns="http://www.w3.org/2000/svg">
<path d="M791.109 297.518L790.231 297.002L788.201 296.383C789.018 297.072 790.04 297.472 791.109 297.518V297.518Z" />
<path d="M803.896 388.891L802.916 389.166L803.896 388.891Z" />
<path d="M791.484 297.377C791.359 297.361 791.237 297.332 791.118 297.29C791.111 297.371 791.111 297.453 791.118 297.534C791.252 297.516 791.379 297.462 791.484 297.377V297.377Z" />
<path d="M791.113 297.529H791.244V297.447L791.113 297.529Z" />
<path d="M803.111 388.726L804.591 387.883L805.142 387.573L805.641 387.04C804.702 387.444 803.846 388.016 803.111 388.726V388.726Z" />
<path d="M793.669 299.515L792.223 298.138L791.243 297.605C791.77 298.535 792.641 299.221 793.669 299.515V299.515Z" />
<path d="M430.019 1186.18C428.864 1186.68 427.852 1187.46 427.076 1188.45L427.988 1187.87C428.608 1187.3 429.485 1186.63 430.019 1186.18Z" />
<path d="M641.187 1144.63C641.187 1143.33 640.551 1143.57 640.705 1148.21C640.705 1147.84 640.86 1147.46 640.929 1147.1C641.015 1146.27 641.084 1145.46 641.187 1144.63Z" />
<path d="M619.284 1186.18C618.129 1186.68 617.118 1187.46 616.342 1188.45L617.254 1187.87C617.873 1187.3 618.751 1186.63 619.284 1186.18Z"/>
<path d="M281.304 1196.06C280.427 1195.3 279.354 1194.8 278.207 1194.61C279.136 1195.06 280.065 1195.51 280.684 1195.85L281.304 1196.06Z" />
<path d="M247.841 1164.01C247.704 1162.66 247.288 1161.35 246.619 1160.16C247.093 1161.39 247.489 1162.66 247.806 1163.94L247.841 1164.01Z" />
<path d="M472.623 590.836C426.682 610.503 374.546 632.802 306.976 632.802C278.71 632.746 250.58 628.868 223.353 621.274L270.086 1101.08C271.74 1121.13 280.876 1139.83 295.679 1153.46C310.482 1167.09 329.87 1174.65 349.992 1174.65C349.992 1174.65 416.254 1178.09 438.365 1178.09C462.161 1178.09 533.516 1174.65 533.516 1174.65C553.636 1174.65 573.019 1167.08 587.819 1153.45C602.619 1139.82 611.752 1121.13 613.406 1101.08L663.459 570.876C641.091 563.237 618.516 558.161 593.068 558.161C549.054 558.144 513.591 573.303 472.623 590.836Z" />
<path d="M78.6885 386.132L79.4799 386.872L79.9962 387.182C79.5987 386.787 79.1603 386.435 78.6885 386.132V386.132Z" />
<path d="M879.567 341.849L872.53 306.352C866.215 274.503 851.882 244.409 819.19 232.898C808.711 229.215 796.821 227.633 788.786 220.01C780.751 212.388 778.376 200.55 776.518 189.572C773.076 169.423 769.842 149.257 766.314 129.143C763.269 111.85 760.86 92.4243 752.928 76.56C742.604 55.2584 721.182 42.8009 699.88 34.559C688.965 30.4844 677.826 27.0375 666.517 24.2352C613.297 10.1947 557.342 5.03277 502.591 2.09047C436.875 -1.53577 370.983 -0.443234 305.422 5.35968C256.625 9.79894 205.229 15.1674 158.858 32.0469C141.91 38.224 124.445 45.6399 111.558 58.7341C95.7448 74.8221 90.5829 99.7026 102.128 119.765C110.336 134.012 124.239 144.078 138.985 150.737C158.192 159.317 178.251 165.846 198.829 170.215C256.126 182.879 315.471 187.851 374.007 189.968C438.887 192.586 503.87 190.464 568.44 183.618C584.408 181.863 600.347 179.758 616.257 177.304C634.995 174.43 647.022 149.928 641.499 132.859C634.891 112.453 617.134 104.538 597.055 107.618C594.095 108.082 591.153 108.512 588.193 108.942L586.06 109.252C579.257 110.113 572.455 110.915 565.653 111.661C551.601 113.175 537.515 114.414 523.394 115.378C491.768 117.58 460.057 118.595 428.363 118.647C397.219 118.647 366.058 117.769 334.983 115.722C320.805 114.793 306.661 113.611 292.552 112.177C286.134 111.506 279.733 110.801 273.333 110.009L267.241 109.235L265.917 109.046L259.602 108.134C246.697 106.189 233.792 103.953 221.025 101.251C219.737 100.965 218.584 100.249 217.758 99.2193C216.932 98.1901 216.482 96.9099 216.482 95.5903C216.482 94.2706 216.932 92.9904 217.758 91.9612C218.584 90.9319 219.737 90.2152 221.025 89.9293H221.266C232.33 87.5721 243.479 85.5589 254.663 83.8038C258.392 83.2188 262.131 82.6453 265.882 82.0832H265.985C272.988 81.6186 280.026 80.3625 286.994 79.5366C347.624 73.2302 408.614 71.0801 469.538 73.1014C499.115 73.9618 528.676 75.6996 558.116 78.6935C564.448 79.3474 570.746 80.0357 577.043 80.8099C579.452 81.1025 581.878 81.4465 584.305 81.7391L589.191 82.4445C603.438 84.5667 617.61 87.1419 631.708 90.1703C652.597 94.7128 679.422 96.1925 688.713 119.077C691.673 126.338 693.015 134.408 694.649 142.03L696.731 151.752C696.786 151.926 696.826 152.105 696.852 152.285C701.773 175.227 706.7 198.169 711.632 221.111C711.994 222.806 712.002 224.557 711.657 226.255C711.312 227.954 710.621 229.562 709.626 230.982C708.632 232.401 707.355 233.6 705.877 234.504C704.398 235.408 702.75 235.997 701.033 236.236H700.895L697.884 236.649L694.908 237.044C685.478 238.272 676.038 239.419 666.586 240.486C647.968 242.608 629.322 244.443 610.648 245.992C573.539 249.077 536.356 251.102 499.098 252.066C480.114 252.57 461.135 252.806 442.162 252.771C366.643 252.712 291.189 248.322 216.173 239.625C208.051 238.662 199.93 237.629 191.808 236.58C198.106 237.389 187.231 235.96 185.029 235.651C179.867 234.928 174.705 234.177 169.543 233.397C152.216 230.798 134.993 227.598 117.7 224.793C96.7944 221.352 76.8005 223.073 57.8906 233.397C42.3685 241.891 29.8055 254.916 21.8776 270.735C13.7217 287.597 11.2956 305.956 7.64786 324.075C4.00009 342.193 -1.67805 361.688 0.472751 380.288C5.10128 420.431 33.165 453.054 73.5313 460.35C111.506 467.232 149.687 472.807 187.971 477.556C338.361 495.975 490.294 498.178 641.155 484.129C653.44 482.982 665.708 481.732 677.959 480.378C681.786 479.958 685.658 480.398 689.292 481.668C692.926 482.938 696.23 485.005 698.962 487.717C701.694 490.429 703.784 493.718 705.08 497.342C706.377 500.967 706.846 504.836 706.453 508.665L702.633 545.797C694.936 620.828 687.239 695.854 679.542 770.874C671.513 849.657 663.431 928.434 655.298 1007.2C653.004 1029.39 650.71 1051.57 648.416 1073.74C646.213 1095.58 645.904 1118.1 641.757 1139.68C635.218 1173.61 612.248 1194.45 578.73 1202.07C548.022 1209.06 516.652 1212.73 485.161 1213.01C450.249 1213.2 415.355 1211.65 380.443 1211.84C343.173 1212.05 297.525 1208.61 268.756 1180.87C243.479 1156.51 239.986 1118.36 236.545 1085.37C231.957 1041.7 227.409 998.039 222.9 954.381L197.607 711.615L181.244 554.538C180.968 551.94 180.693 549.376 180.435 546.76C178.473 528.023 165.207 509.681 144.301 510.627C126.407 511.418 106.069 526.629 108.168 546.76L120.298 663.214L145.385 904.104C152.532 972.528 159.661 1040.96 166.773 1109.41C168.15 1122.52 169.44 1135.67 170.885 1148.78C178.749 1220.43 233.465 1259.04 301.224 1269.91C340.799 1276.28 381.337 1277.59 421.497 1278.24C472.979 1279.07 524.977 1281.05 575.615 1271.72C650.653 1257.95 706.952 1207.85 714.987 1130.13C717.282 1107.69 719.576 1085.25 721.87 1062.8C729.498 988.559 737.115 914.313 744.72 840.061L769.601 597.451L781.009 486.263C781.577 480.749 783.905 475.565 787.649 471.478C791.392 467.391 796.352 464.617 801.794 463.567C823.25 459.386 843.761 452.245 859.023 435.916C883.318 409.918 888.153 376.021 879.567 341.849ZM72.4301 365.835C72.757 365.68 72.1548 368.484 71.8967 369.792C71.8451 367.813 71.9483 366.058 72.4301 365.835ZM74.5121 381.94C74.6842 381.819 75.2003 382.508 75.7337 383.334C74.925 382.576 74.4089 382.009 74.4949 381.94H74.5121ZM76.5597 384.641C77.2996 385.897 77.6953 386.689 76.5597 384.641V384.641ZM80.672 387.979H80.7752C80.7752 388.1 80.9645 388.22 81.0333 388.341C80.9192 388.208 80.7925 388.087 80.6548 387.979H80.672ZM800.796 382.989C793.088 390.319 781.473 393.726 769.996 395.43C641.292 414.529 510.713 424.199 380.597 419.932C287.476 416.749 195.336 406.407 103.144 393.382C94.1102 392.109 84.3197 390.457 78.1082 383.798C66.4078 371.237 72.1548 345.944 75.2003 330.768C77.9878 316.865 83.3218 298.334 99.8572 296.355C125.667 293.327 155.64 304.218 181.175 308.09C211.917 312.781 242.774 316.538 273.745 319.36C405.925 331.405 540.325 329.529 671.92 311.91C695.905 308.686 719.805 304.941 743.619 300.674C764.835 296.871 788.356 289.731 801.175 311.703C809.967 326.673 811.137 346.701 809.778 363.615C809.359 370.984 806.139 377.915 800.779 382.989H800.796Z" />
</symbol>

<symbol id="blog-icon" xmlns="http://www.w3.org/2000/svg"  viewBox="0 0 24 24"><path d="M 4 0 L 4 10 L 7 15 L 10 10 L 10 4 L 21 4 C 21.601563 4 22 4.398438 22 5 L 22 15 L 7 15 L 8.8125 17.40625 L 8.6875 17.5 L 6 19.6875 L 6 17 L 3 17 C 2.398438 17 2 16.601563 2 16 L 2 5 C 2 4.398438 2.398438 4 3 4 L 3 2 C 1.300781 2 0 3.300781 0 5 L 0 16 C 0 17.699219 1.300781 19 3 19 L 4 19 L 4 24 L 10 19 L 21 19 C 22.699219 19 24 17.699219 24 16 L 24 5 C 24 3.300781 22.699219 2 21 2 L 10 2 L 10 0 Z M 7 9 L 9 9.65625 L 9 9.6875 L 7.40625 12.3125 L 6.59375 12.3125 L 5 9.6875 L 5 9.65625 Z"/></symbol>
</svg>