<svg width="50" height="50" viewBox="0 0 153 153" fill="none" xmlns="http://www.w3.org/2000/svg">
<path d="M71.01 141.579C109.937 141.579 141.494 109.927 141.494 70.8818C141.494 31.8369 109.937 0.184753 71.01 0.184753C32.083 0.184753 0.526428 31.8369 0.526428 70.8818C0.526428 109.927 32.083 141.579 71.01 141.579Z" fill="#FCECA5"/>
<path d="M141.567 130.822C140.606 130.822 139.608 130.971 138.646 131.23L93.0869 84.68C98.0422 77.2616 99.0777 67.6919 95.4906 59.272C94.4552 56.824 93.05 54.5243 91.3119 52.4471C90.6463 51.6682 89.9807 50.9264 89.278 50.2958L85.9868 47.143L80.6617 42.0243L75.3366 36.9057L70.0115 31.787L69.3089 31.0822C67.6449 29.5244 65.8328 28.152 63.8729 27.0763C61.3952 25.7039 58.6957 24.7395 55.8483 24.1832C54.2212 23.8864 52.594 23.7381 50.9299 23.7381C43.534 23.7381 36.6557 26.7054 31.5525 32.0837L31.4046 32.2321C25.3769 38.6119 22.8623 47.551 24.6373 56.1563C25.229 58.9753 26.2274 61.6459 27.6696 64.1311C28.9639 66.3566 30.5541 68.3595 32.3661 70.1029L32.477 70.2141L37.8021 75.3328L43.1272 80.4515L48.4523 85.5702L52.3352 89.3164C52.8159 89.7615 53.3336 90.2066 53.9253 90.6888C55.9962 92.3951 58.3259 93.7304 60.8036 94.7318C63.9469 95.993 67.312 96.6235 70.7141 96.6235C76.1132 96.6235 81.2534 95.0286 85.617 92.0612L131.324 138.76C131.102 139.65 130.991 140.54 130.991 141.43C130.991 147.291 135.725 152.039 141.567 152.039C147.41 152.039 152.144 147.291 152.144 141.43C152.144 135.607 147.41 130.822 141.567 130.822ZM61.0255 92.2467C59.4353 91.5419 57.9561 90.6888 56.5509 89.6873L63.614 82.4544L90.3135 55.1178C91.3489 56.4902 92.2364 57.9738 92.976 59.5317L61.0255 92.2467ZM33.1796 33.9383L33.3276 33.79C37.95 28.8938 44.2366 26.1861 50.9669 26.1861C51.7065 26.1861 52.4091 26.2232 53.1487 26.2974L26.6712 53.4115C25.8946 46.2899 28.2243 39.1683 33.1796 33.9383ZM56.0332 26.7425C57.8452 27.1134 59.6202 27.7069 61.2843 28.5229L29.0379 61.5717C28.2244 59.9026 27.5957 58.1593 27.1519 56.3418L56.0332 26.7425ZM30.2582 63.7231L63.5031 29.6727C64.9453 30.5259 66.2766 31.5644 67.4969 32.7143L33.3645 67.6919C32.2182 66.505 31.1457 65.1696 30.2582 63.7231ZM69.235 34.3834L72.822 37.833L38.6896 72.8106L35.1026 69.361L69.235 34.3834ZM74.5601 39.5021L78.1471 42.9516L44.0147 77.9293L40.4277 74.4797L74.5601 39.5021ZM79.8852 44.6208L83.4722 48.0703L49.3398 83.0479L45.7528 79.5984L79.8852 44.6208ZM51.0779 84.7541L85.2103 49.7765L87.6509 52.1133C88.0207 52.4842 88.4275 52.8552 88.7973 53.2632L74.4861 67.9515L54.7019 88.2037C54.48 88.0182 54.2951 87.8328 54.0732 87.6473L51.0779 84.7541ZM83.9899 90.4292C80.107 92.9514 75.5585 94.3238 70.7881 94.3238C68.3105 94.3238 65.8328 93.9529 63.5031 93.2111L78.1841 78.1889L93.9745 62.0168C96.3412 69.0643 95.3797 76.8165 91.3859 82.9737C90.9421 83.6414 90.4614 84.309 89.9806 84.9767C89.5369 85.5331 89.0931 86.0894 88.5754 86.6087L88.4275 86.7571C87.6509 87.5731 86.8374 88.352 85.9499 89.0197C85.3212 89.5019 84.6556 89.9841 83.9899 90.4292ZM141.567 149.665C137.056 149.665 133.395 145.993 133.395 141.468C133.395 140.577 133.543 139.687 133.839 138.834C133.987 138.389 133.876 137.944 133.543 137.61L87.6509 90.7259C88.5384 89.9841 89.3889 89.2422 90.1655 88.3891L90.3135 88.2408C90.7942 87.7586 91.2379 87.2393 91.6447 86.6829L137.463 133.493C137.796 133.827 138.276 133.938 138.72 133.79C139.645 133.456 140.606 133.27 141.531 133.27C146.042 133.27 149.703 136.942 149.703 141.468C149.74 145.993 146.079 149.665 141.567 149.665Z" fill="#1B1464"/>
<path d="M23.8977 70.8076C23.4539 70.8076 23.0471 71.0302 22.8622 71.4382C22.2705 72.4768 8.66199 96.9573 8.66199 104.932C8.66199 113.389 15.5032 120.251 23.9346 120.251C32.3661 120.251 39.2073 113.389 39.2073 104.932C39.2073 96.9203 25.5618 72.4768 25.0071 71.4382C24.7482 71.0302 24.3414 70.8076 23.8977 70.8076ZM23.8977 117.803C16.7975 117.803 11.0287 112.017 11.0287 104.895C11.0287 98.7377 20.6434 80.4515 23.8977 74.4797C28.2613 82.5286 36.7667 99.257 36.7667 104.895C36.7667 112.017 30.9978 117.803 23.8977 117.803Z" fill="#1B1464"/>
<path d="M141.568 133.233C140.606 133.233 139.682 133.419 138.757 133.752C138.313 133.901 137.796 133.79 137.5 133.456L91.6818 86.6458C91.238 87.1651 90.7942 87.6844 90.3505 88.2037L90.2026 88.352C89.389 89.2051 88.5755 89.9841 87.6879 90.6888L133.543 137.573C133.876 137.907 133.987 138.389 133.839 138.797C133.543 139.65 133.395 140.54 133.395 141.43C133.395 145.956 137.056 149.628 141.568 149.628C146.079 149.628 149.74 145.956 149.74 141.43C149.74 136.942 146.079 133.233 141.568 133.233Z" fill="white"/>
<path d="M69.235 34.3834L35.1026 69.361L38.6896 72.8477L72.822 37.833L69.235 34.3834Z" fill="white"/>
<path d="M63.762 29.6728L30.5171 63.723C31.4046 65.1325 32.4401 66.4678 33.6234 67.6919L67.7557 32.7143C66.5354 31.5644 65.2042 30.563 63.762 29.6728Z" fill="#F19202"/>
<path d="M56.0332 26.7425L27.1519 56.3418C27.5587 58.1593 28.1874 59.9026 29.0379 61.5717L61.2843 28.5229C59.6202 27.7069 57.8822 27.1134 56.0332 26.7425Z" fill="white"/>
<path d="M50.9669 26.1861C44.2366 26.1861 37.95 28.8938 33.3275 33.79L33.1796 33.9383C28.2243 39.1683 25.8946 46.2899 26.6712 53.4115L53.1488 26.2974C52.4092 26.2232 51.6695 26.1861 50.9669 26.1861Z" fill="#F19202"/>
<path d="M74.8559 39.5021L40.6865 74.5168L44.2736 77.9663L78.4429 42.9516L74.8559 39.5021Z" fill="#F19202"/>
<path d="M90.3504 55.1178L63.651 82.4544L56.5878 89.6874C57.9931 90.6888 59.4723 91.542 61.0624 92.2467L93.013 59.4946C92.2734 57.9738 91.3859 56.4902 90.3504 55.1178Z" fill="white"/>
<path d="M79.8852 44.6208L45.7528 79.6355L49.3398 83.085L83.5092 48.0703L79.8852 44.6208Z" fill="white"/>
<path d="M88.7233 86.72L88.8712 86.5716C89.3519 86.0523 89.8327 85.4959 90.2764 84.9396C90.7942 84.309 91.2749 83.6414 91.6817 82.9366C95.6385 76.7423 96.637 69.0272 94.2703 61.9798L78.4799 78.1518L63.7989 93.174C66.1656 93.9158 68.6063 94.2867 71.0839 94.2867C75.8543 94.2867 80.4028 92.9143 84.2857 90.3921C84.9514 89.947 85.617 89.4648 86.2456 88.9455C87.0962 88.2778 87.9098 87.536 88.7233 86.72Z" fill="#F19202"/>
<path d="M89.0562 53.2632C88.6864 52.8552 88.3166 52.4842 87.9098 52.1133L85.4691 49.7765L51.3367 84.7541L54.3321 87.6473C54.517 87.8328 54.7388 88.0182 54.9607 88.2037L74.745 67.9515L89.0562 53.2632Z" fill="#F19202"/>
<path d="M23.8977 117.172C16.7976 117.172 11.0287 111.386 11.0287 104.264C11.0287 98.1072 20.6435 79.8209 23.8977 73.8492C28.2613 81.8981 36.7667 98.6265 36.7667 104.264C36.7667 111.386 30.9978 117.172 23.8977 117.172Z" fill="#F19202"/>
</svg>
